<svg width="310" height="282" viewBox="0 0 310 282" fill="none" xmlns="http://www.w3.org/2000/svg">
<g opacity="0.5">
<path fill-rule="evenodd" clip-rule="evenodd" d="M178.873 7.77852C181.149 8.75097 183.296 9.75587 185.377 10.858C185.818 11.0952 186.208 11.4175 186.522 11.8063C186.837 12.195 187.071 12.6424 187.21 13.1222C187.349 13.602 187.391 14.1047 187.334 14.6008C187.276 15.097 187.119 15.5767 186.873 16.012C186.637 16.4578 186.315 16.8527 185.926 17.1741C185.536 17.4954 185.087 17.7369 184.603 17.8845C184.119 18.0321 183.611 18.0829 183.108 18.0341C182.605 17.9854 182.116 17.8379 181.67 17.6003C178.71 16.0443 175.816 14.6829 172.563 13.3863C171.263 12.9325 169.864 12.4787 168.368 12.0898L165.669 11.4091C148.813 7.1063 131.236 6.39931 114.088 9.33448C90.8883 13.5301 69.2892 23.9911 51.6437 39.5777C33.8232 55.1716 20.6009 75.3088 13.3968 97.8273C6.44722 119.538 5.74663 142.716 11.315 164.741C11.4058 164.925 11.4823 165.117 11.5431 165.315C18.8446 188.91 33.1282 209.756 52.5218 225.121C71.1264 239.695 93.3469 248.971 116.819 251.96C140.198 255.068 163.984 251.703 185.573 242.236C202.383 234.738 217.296 223.585 229.218 209.594C227.176 201.756 226.701 193.595 227.82 185.575C228.926 178.638 232.731 173.776 237.999 172.447C239.958 171.994 242.002 172.074 243.919 172.679C245.835 173.283 247.554 174.39 248.895 175.883C249.191 176.196 249.463 176.532 249.708 176.887C253.383 182.009 252.862 189.335 248.342 196.628C245.169 201.78 241.66 206.717 237.837 211.409C240.629 220.349 244.858 228.779 250.358 236.369C264.006 255.097 283.813 268.461 306.33 274.132C306.835 274.26 307.31 274.487 307.726 274.801C308.142 275.115 308.491 275.508 308.752 275.959C309.012 276.409 309.18 276.907 309.244 277.422C309.309 277.938 309.269 278.462 309.127 278.962C308.867 279.943 308.229 280.782 307.352 281.298C306.476 281.813 305.431 281.964 304.444 281.717C280.14 275.579 258.767 261.137 244.049 240.907C239.013 233.924 234.954 226.29 231.983 218.216C219.877 231.375 205.202 241.931 188.857 249.238C165.965 259.29 140.732 262.846 115.941 259.513C91.0604 256.338 67.5111 246.49 47.806 231.02C29.0523 216.194 14.7799 196.55 6.48569 174.267C6.37571 174.151 6.27282 174.029 6.17773 173.9C5.8648 173.476 5.64308 172.992 5.52635 172.479C-2.04722 147.351 -1.83183 120.53 6.14429 95.5259C13.8358 71.7154 27.8633 50.4301 46.7327 33.9374C65.42 17.3751 88.3352 6.28091 112.949 1.87907C130.611 -1.11962 148.699 -0.524268 166.124 3.62941L173.409 5.60677H173.669L174.677 5.86605L178.873 7.77852ZM239.56 179.416C236.308 180.68 234.259 185.121 234.259 191.312V191.377C234.259 195.591 234.324 199.902 234.65 203.986C238.44 199.64 241.544 194.743 243.854 189.464C245.577 185.38 245.642 181.944 243.854 180.161C243.296 179.622 242.588 179.262 241.822 179.129C241.057 178.996 240.268 179.096 239.56 179.416Z" fill="url(#paint0_linear_43_133)" style=""/>
</g>
<defs>
<linearGradient id="paint0_linear_43_133" x1="-31" y1="-94" x2="301" y2="264" gradientUnits="userSpaceOnUse">
<stop stop-color="white" style="stop-color:white;stop-opacity:1;"/>
<stop offset="1" stop-color="white" stop-opacity="0" style="stop-color:none;stop-opacity:0;"/>
</linearGradient>
</defs>
</svg>
