<svg width="100" height="35" viewBox="0 0 100 35" fill="none" xmlns="http://www.w3.org/2000/svg">
<path fill-rule="evenodd" clip-rule="evenodd" d="M2.49988 0H0V2.5C0 1.11929 1.11924 0 2.49988 0ZM4.99976 0C6.38041 0 7.49965 1.11929 7.49965 2.5V32.5C7.49965 33.8807 6.38041 35 4.99976 35H14.9995C13.6189 35 12.4996 33.8807 12.4996 32.5V2.5C12.4996 1.11929 13.6189 0 14.9995 0H4.99976ZM17.4994 0C18.88 0 19.9993 1.11929 19.9993 2.5V32.5C19.9993 33.8807 18.88 35 17.4994 35H27.4986C26.118 35 24.9988 33.8807 24.9988 32.5V2.5C24.9988 1.11929 26.118 0 27.4986 0H17.4994ZM29.9985 0C31.3792 0 32.4984 1.11929 32.4984 2.5V32.5C32.4984 33.8807 31.3792 35 29.9985 35H39.9983C38.6176 35 37.4984 33.8807 37.4984 32.5V2.5C37.4984 1.11929 38.6176 0 39.9983 0H29.9985ZM42.4981 0C43.8788 0 44.998 1.11929 44.998 2.5V32.5C44.998 33.8807 43.8788 35 42.4981 35H52.4974C51.1168 35 49.9975 33.8807 49.9975 32.5V2.5C49.9975 1.11929 51.1168 0 52.4974 0H42.4981ZM54.9973 0C56.3779 0 57.4972 1.11929 57.4972 2.5V32.5C57.4972 33.8807 56.3779 35 54.9973 35H64.9965C63.6159 35 62.4967 33.8807 62.4967 32.5V2.5C62.4967 1.11929 63.6159 0 64.9965 0H54.9973ZM67.4964 0C68.8771 0 69.9963 1.11929 69.9963 2.5V32.5C69.9963 33.8807 68.8771 35 67.4964 35H77.4962C76.1155 35 74.9963 33.8807 74.9963 32.5V2.5C74.9963 1.11929 76.1155 0 77.4962 0H67.4964ZM79.996 0C81.3767 0 82.4959 1.11929 82.4959 2.5V32.5C82.4959 33.8807 81.3767 35 79.996 35H89.9958C88.6151 35 87.4959 33.8807 87.4959 32.5V2.5C87.4959 1.11929 88.6151 0 89.9958 0H79.996ZM92.4957 0C93.8763 0 94.9956 1.11929 94.9956 2.5V32.5C94.9956 33.8807 93.8763 35 92.4957 35H100V32.6525C99.9971 32.6021 99.9955 32.5512 99.9955 32.5V2.5C99.9955 2.44878 99.9971 2.39791 100 2.34745V0H92.4957ZM2.49988 35C1.11924 35 0 33.8807 0 32.5V35H2.49988Z" fill="#F0F0F2"/>
</svg>
