<svg width="46" height="46" viewBox="0 0 46 46" fill="none" xmlns="http://www.w3.org/2000/svg">
<circle cx="23" cy="23" r="23" fill="white" style="fill:white;fill-opacity:1;"/>
<path d="M23.5537 9.89904C24.4528 9.44951 24.9023 9.44951 25.8014 9.89904C26.7004 10.3486 27.15 10.3486 28.049 9.89904V11.2476C27.15 11.6972 26.7004 11.6972 25.8014 11.2476C24.9023 10.7981 24.4528 10.7981 23.5537 11.2476V9.89904Z" fill="#0065C2" style="fill:#0065C2;fill:color(display-p3 0.0000 0.3961 0.7608);fill-opacity:1;"/>
<path d="M23.5537 11.2477C24.4528 10.7981 24.9023 10.7981 25.8014 11.2477C26.7004 11.6972 27.15 11.6972 28.049 11.2477V12.5963C27.15 13.0458 26.7004 13.0458 25.8014 12.5963C24.9023 12.1467 24.4528 12.1467 23.5537 12.5963V11.2477Z" fill="#FFF300" style="fill:#FFF300;fill:color(display-p3 1.0000 0.9529 0.0000);fill-opacity:1;"/>
<path d="M33.8033 21.8566H13.1248V35.1627H33.8033V21.8566Z" fill="white" stroke="#952E34" style="fill:white;fill-opacity:1;stroke:#952E34;stroke:color(display-p3 0.5843 0.1804 0.2039);stroke-opacity:1;" stroke-width="0.26972"/>
<path d="M12.5852 21.8566V21.4071H15.7319V20.8677H31.1959V21.4071H34.3426V21.8566H12.5852Z" fill="white" stroke="#952E34" style="fill:white;fill-opacity:1;stroke:#952E34;stroke:color(display-p3 0.5843 0.1804 0.2039);stroke-opacity:1;" stroke-width="0.26972"/>
<path d="M13.1248 24.1942H33.8033M13.1248 25.4529H33.8033M13.1248 33.8142H33.8033M13.1248 34.5335H33.8033" stroke="#952E34" style="stroke:#952E34;stroke:color(display-p3 0.5843 0.1804 0.2039);stroke-opacity:1;" stroke-width="0.26972"/>
<path d="M20.0473 24.1941C18.6088 24.1042 18.7887 22.1263 17.9795 21.8566ZM21.1262 24.1941C19.7776 23.6547 20.1372 22.3061 19.2382 21.8566ZM26.8802 24.1941C28.3187 24.1042 28.1389 22.1263 28.9481 21.8566ZM25.8014 24.1941C27.15 23.6547 26.7903 22.3061 27.6894 21.8566Z" fill="white" style="fill:white;fill-opacity:1;"/>
<path d="M20.0473 24.1941C18.6088 24.1042 18.7887 22.1263 17.9795 21.8566M21.1262 24.1941C19.7776 23.6547 20.1372 22.3061 19.2382 21.8566M26.8802 24.1941C28.3187 24.1042 28.1389 22.1263 28.9481 21.8566M25.8014 24.1941C27.15 23.6547 26.7903 22.3061 27.6894 21.8566" stroke="#952E34" style="stroke:#952E34;stroke:color(display-p3 0.5843 0.1804 0.2039);stroke-opacity:1;" stroke-width="0.26972"/>
<path d="M25.7115 25.4529H23.9133V25.9923H25.7115V25.4529Z" fill="white" stroke="#952E34" style="fill:white;fill-opacity:1;stroke:#952E34;stroke:color(display-p3 0.5843 0.1804 0.2039);stroke-opacity:1;" stroke-width="0.26972"/>
<path d="M25.7115 33.2748H23.9133V33.8142H25.7115V33.2748Z" fill="white" stroke="#952E34" style="fill:white;fill-opacity:1;stroke:#952E34;stroke:color(display-p3 0.5843 0.1804 0.2039);stroke-opacity:1;" stroke-width="0.26972"/>
<path d="M25.4418 25.9923H24.1831V33.2747H25.4418V25.9923Z" fill="white" stroke="#952E34" style="fill:white;fill-opacity:1;stroke:#952E34;stroke:color(display-p3 0.5843 0.1804 0.2039);stroke-opacity:1;" stroke-width="0.26972"/>
<path d="M23.0144 25.4529H21.2163V25.9923H23.0144V25.4529Z" fill="white" stroke="#952E34" style="fill:white;fill-opacity:1;stroke:#952E34;stroke:color(display-p3 0.5843 0.1804 0.2039);stroke-opacity:1;" stroke-width="0.26972"/>
<path d="M23.0144 33.2748H21.2163V33.8142H23.0144V33.2748Z" fill="white" stroke="#952E34" style="fill:white;fill-opacity:1;stroke:#952E34;stroke:color(display-p3 0.5843 0.1804 0.2039);stroke-opacity:1;" stroke-width="0.26972"/>
<path d="M22.7445 25.9923H21.4858V33.2747H22.7445V25.9923Z" fill="white" stroke="#952E34" style="fill:white;fill-opacity:1;stroke:#952E34;stroke:color(display-p3 0.5843 0.1804 0.2039);stroke-opacity:1;" stroke-width="0.26972"/>
<path d="M20.3172 25.4529H18.519V25.9923H20.3172V25.4529Z" fill="white" stroke="#952E34" style="fill:white;fill-opacity:1;stroke:#952E34;stroke:color(display-p3 0.5843 0.1804 0.2039);stroke-opacity:1;" stroke-width="0.26972"/>
<path d="M20.3172 33.2748H18.519V33.8142H20.3172V33.2748Z" fill="white" stroke="#952E34" style="fill:white;fill-opacity:1;stroke:#952E34;stroke:color(display-p3 0.5843 0.1804 0.2039);stroke-opacity:1;" stroke-width="0.26972"/>
<path d="M20.0473 25.9923H18.7886V33.2747H20.0473V25.9923Z" fill="white" stroke="#952E34" style="fill:white;fill-opacity:1;stroke:#952E34;stroke:color(display-p3 0.5843 0.1804 0.2039);stroke-opacity:1;" stroke-width="0.26972"/>
<path d="M17.6199 25.4529H15.8218V25.9923H17.6199V25.4529Z" fill="white" stroke="#952E34" style="fill:white;fill-opacity:1;stroke:#952E34;stroke:color(display-p3 0.5843 0.1804 0.2039);stroke-opacity:1;" stroke-width="0.26972"/>
<path d="M17.6199 33.2748H15.8218V33.8142H17.6199V33.2748Z" fill="white" stroke="#952E34" style="fill:white;fill-opacity:1;stroke:#952E34;stroke:color(display-p3 0.5843 0.1804 0.2039);stroke-opacity:1;" stroke-width="0.26972"/>
<path d="M17.3502 25.9923H16.0916V33.2747H17.3502V25.9923Z" fill="white" stroke="#952E34" style="fill:white;fill-opacity:1;stroke:#952E34;stroke:color(display-p3 0.5843 0.1804 0.2039);stroke-opacity:1;" stroke-width="0.26972"/>
<path d="M28.4087 25.4529H26.6106V25.9923H28.4087V25.4529Z" fill="white" stroke="#952E34" style="fill:white;fill-opacity:1;stroke:#952E34;stroke:color(display-p3 0.5843 0.1804 0.2039);stroke-opacity:1;" stroke-width="0.26972"/>
<path d="M28.4087 33.2748H26.6106V33.8142H28.4087V33.2748Z" fill="white" stroke="#952E34" style="fill:white;fill-opacity:1;stroke:#952E34;stroke:color(display-p3 0.5843 0.1804 0.2039);stroke-opacity:1;" stroke-width="0.26972"/>
<path d="M28.1391 25.9923H26.8804V33.2747H28.1391V25.9923Z" fill="white" stroke="#952E34" style="fill:white;fill-opacity:1;stroke:#952E34;stroke:color(display-p3 0.5843 0.1804 0.2039);stroke-opacity:1;" stroke-width="0.26972"/>
<path d="M31.106 25.4529H29.3079V25.9923H31.106V25.4529Z" fill="white" stroke="#952E34" style="fill:white;fill-opacity:1;stroke:#952E34;stroke:color(display-p3 0.5843 0.1804 0.2039);stroke-opacity:1;" stroke-width="0.26972"/>
<path d="M31.106 33.2748H29.3079V33.8142H31.106V33.2748Z" fill="white" stroke="#952E34" style="fill:white;fill-opacity:1;stroke:#952E34;stroke:color(display-p3 0.5843 0.1804 0.2039);stroke-opacity:1;" stroke-width="0.26972"/>
<path d="M30.8361 25.9923H29.5774V33.2747H30.8361V25.9923Z" fill="white" stroke="#952E34" style="fill:white;fill-opacity:1;stroke:#952E34;stroke:color(display-p3 0.5843 0.1804 0.2039);stroke-opacity:1;" stroke-width="0.26972"/>
<path d="M15.4624 24.1942H8.53955V33.8142H15.4624V24.1942Z" fill="white" stroke="#952E34" style="fill:white;fill-opacity:1;stroke:#952E34;stroke:color(display-p3 0.5843 0.1804 0.2039);stroke-opacity:1;" stroke-width="0.26972"/>
<path d="M10.8771 24.1942V33.8142M13.1248 24.1942V33.8142M8.53955 25.4529H10.8771M15.4624 25.4529H13.1248" stroke="#952E34" style="stroke:#952E34;stroke:color(display-p3 0.5843 0.1804 0.2039);stroke-opacity:1;" stroke-width="0.26972"/>
<path d="M16.0017 22.9355H8V24.1942H16.0017V22.9355Z" fill="white" stroke="#952E34" style="fill:white;fill-opacity:1;stroke:#952E34;stroke:color(display-p3 0.5843 0.1804 0.2039);stroke-opacity:1;" stroke-width="0.26972"/>
<path d="M16.0017 33.8142H8V35.1628H16.0017V33.8142Z" fill="white" stroke="#952E34" style="fill:white;fill-opacity:1;stroke:#952E34;stroke:color(display-p3 0.5843 0.1804 0.2039);stroke-opacity:1;" stroke-width="0.26972"/>
<path d="M31.4654 24.1942H38.3882V33.8142H31.4654V24.1942Z" fill="white" stroke="#952E34" style="fill:white;fill-opacity:1;stroke:#952E34;stroke:color(display-p3 0.5843 0.1804 0.2039);stroke-opacity:1;" stroke-width="0.26972"/>
<path d="M36.0506 24.1942V33.8142M33.803 24.1942V33.8142M38.3882 25.4529H36.0506M31.4654 25.4529H33.803" stroke="#952E34" style="stroke:#952E34;stroke:color(display-p3 0.5843 0.1804 0.2039);stroke-opacity:1;" stroke-width="0.26972"/>
<path d="M30.9261 22.9355H38.9277V24.1942H30.9261V22.9355Z" fill="white" stroke="#952E34" style="fill:white;fill-opacity:1;stroke:#952E34;stroke:color(display-p3 0.5843 0.1804 0.2039);stroke-opacity:1;" stroke-width="0.26972"/>
<path d="M30.9261 33.8142H38.9277V35.1628H30.9261V33.8142Z" fill="white" stroke="#952E34" style="fill:white;fill-opacity:1;stroke:#952E34;stroke:color(display-p3 0.5843 0.1804 0.2039);stroke-opacity:1;" stroke-width="0.26972"/>
<path d="M23.5537 9H23.3739C23.2746 9 23.1941 9.08051 23.1941 9.17981V15.1136C23.1941 15.213 23.2746 15.2935 23.3739 15.2935H23.5537C23.653 15.2935 23.7335 15.213 23.7335 15.1136V9.17981C23.7335 9.08051 23.653 9 23.5537 9Z" fill="white" stroke="#952E34" style="fill:white;fill-opacity:1;stroke:#952E34;stroke:color(display-p3 0.5843 0.1804 0.2039);stroke-opacity:1;" stroke-width="0.26972"/>
<path d="M16.4512 20.8676C16.6635 19.8797 17.152 18.9526 17.8734 18.1685C18.5948 17.3844 19.5268 16.7675 20.5869 16.3723H26.3409C27.401 16.7675 28.333 17.3844 29.0544 18.1685C29.7757 18.9526 30.2642 19.8797 30.4766 20.8676H16.4512Z" fill="white" stroke="#952E34" style="fill:white;fill-opacity:1;stroke:#952E34;stroke:color(display-p3 0.5843 0.1804 0.2039);stroke-opacity:1;" stroke-width="0.26972"/>
<path d="M19.7778 20.8676C19.912 19.8627 20.1779 18.9302 20.5533 18.1481C20.9287 17.366 21.4027 16.7571 21.9356 16.3723M27.1502 20.8676C27.016 19.8627 26.7501 18.9302 26.3747 18.1481C25.9993 17.366 25.5253 16.7571 24.9924 16.3723" stroke="#952E34" style="stroke:#952E34;stroke:color(display-p3 0.5843 0.1804 0.2039);stroke-opacity:1;" stroke-width="0.26972"/>
<path d="M20.9465 16.3724L21.3961 15.9229H25.5318L25.9813 16.3724H20.9465Z" fill="white" stroke="#952E34" style="fill:white;fill-opacity:1;stroke:#952E34;stroke:color(display-p3 0.5843 0.1804 0.2039);stroke-opacity:1;" stroke-width="0.26972"/>
<path d="M22.1152 15.9228L22.4299 15.2934L22.1152 14.6641H24.8124L24.4978 15.2934L24.8124 15.9228H22.1152Z" fill="white" stroke="#952E34" style="fill:white;fill-opacity:1;stroke:#952E34;stroke:color(display-p3 0.5843 0.1804 0.2039);stroke-opacity:1;" stroke-width="0.26972"/>
<path d="M23.4639 24.0144C25.2018 24.0144 26.6106 22.6056 26.6106 20.8677C26.6106 19.1298 25.2018 17.7209 23.4639 17.7209C21.726 17.7209 20.3171 19.1298 20.3171 20.8677C20.3171 22.6056 21.726 24.0144 23.4639 24.0144Z" fill="white" stroke="#952E34" style="fill:white;fill-opacity:1;stroke:#952E34;stroke:color(display-p3 0.5843 0.1804 0.2039);stroke-opacity:1;" stroke-width="0.26972"/>
<path d="M23.4638 18.2738C23.3384 18.4168 23.2615 18.6029 23.2615 18.8078C23.2696 19.2583 23.3235 19.7074 23.3289 20.1564C23.3384 20.5759 23.2129 20.9697 23.0605 21.354C23.0093 21.4605 22.954 21.5644 22.8987 21.6682L22.7369 21.6359C22.5912 21.6062 22.4955 21.4646 22.5252 21.3189C22.5508 21.1908 22.6627 21.1018 22.7881 21.1018L22.8475 21.1086L22.7153 20.0081C22.6721 19.5186 22.42 19.0884 22.0477 18.8092C21.9844 18.7606 21.9156 18.7175 21.8455 18.6784V22.5853H22.7477C22.8151 22.9507 23.016 23.2704 23.2992 23.4888C23.3667 23.5347 23.4233 23.5967 23.4638 23.6682C23.5042 23.5967 23.5609 23.536 23.6283 23.4888C23.9115 23.2704 24.1125 22.9507 24.1799 22.5853H25.0821V18.6784C25.012 18.7175 24.9432 18.7606 24.8798 18.8092C24.5076 19.0884 24.2554 19.5186 24.2122 20.0081L24.0801 21.1086L24.1394 21.1018C24.2648 21.1018 24.3768 21.1908 24.4024 21.3189C24.4321 21.4646 24.3363 21.6075 24.1907 21.6359L24.0288 21.6682C23.9735 21.5644 23.9183 21.4605 23.867 21.354C23.7133 20.9697 23.5878 20.5759 23.5986 20.1564C23.604 19.706 23.658 19.2569 23.6661 18.8078C23.6661 18.6029 23.5892 18.4168 23.4638 18.2738ZM22.1152 19.2407C22.2891 19.4457 22.4065 19.7006 22.4415 19.9811L22.5494 20.8887C22.4119 20.9575 22.3067 21.0843 22.2676 21.2367H22.1152V19.2407ZM24.8124 19.2407V21.2367H24.66C24.6209 21.0843 24.5157 20.9575 24.3781 20.8887L24.486 19.9811C24.5211 19.7006 24.6384 19.4457 24.8124 19.2407ZM23.4638 21.0654C23.5366 21.3028 23.6364 21.528 23.7605 21.737C23.6431 21.7721 23.5406 21.8422 23.4638 21.9366C23.3883 21.8422 23.2858 21.7734 23.1671 21.737C23.2912 21.528 23.391 21.3028 23.4638 21.0654ZM22.1152 21.5064H22.2676C22.3161 21.6925 22.4618 21.8395 22.6452 21.8907L22.7746 21.9204C22.7396 22.0458 22.7207 22.178 22.7207 22.3156H22.1138V21.5064H22.1152ZM24.66 21.5064H24.8124V22.3156H24.2055C24.2055 22.1793 24.1866 22.0458 24.1516 21.9204L24.281 21.8907C24.4658 21.8395 24.6114 21.6925 24.6586 21.5064H24.66ZM23.039 21.9824C23.2021 22.0054 23.3289 22.1456 23.3289 22.3156H22.9918C22.9918 22.1996 23.0093 22.089 23.039 21.9824ZM23.8886 21.9824C23.9183 22.0876 23.9358 22.1996 23.9358 22.3156H23.5986C23.5986 22.1456 23.7254 22.0054 23.8886 21.9824ZM23.0228 22.5853H23.3289V23.153C23.1806 22.9966 23.0727 22.8024 23.0228 22.5853ZM23.5986 22.5853H23.9048C23.8549 22.8024 23.747 22.9979 23.5986 23.153V22.5853Z" fill="#952E34" style="fill:#952E34;fill:color(display-p3 0.5843 0.1804 0.2039);fill-opacity:1;"/>
</svg>
