<svg width="108" height="36" viewBox="0 0 108 36" fill="none" xmlns="http://www.w3.org/2000/svg">
<path fill-rule="evenodd" clip-rule="evenodd" d="M0 2.50709C0 1.12246 1.12246 0 2.50709 0H5.01417C6.3988 0 7.52126 1.12246 7.52126 2.50709V32.5921C7.52126 33.9768 6.3988 35.0992 5.01417 35.0992H2.50709C1.12246 35.0992 0 33.9768 0 32.5921V2.50709ZM12.5356 2.50709C12.5356 1.12246 13.6581 0 15.0427 0H17.5498C18.9344 0 20.0569 1.12246 20.0569 2.50709V32.5921C20.0569 33.9768 18.9344 35.0992 17.5498 35.0992H15.0427C13.6581 35.0992 12.5356 33.9768 12.5356 32.5921V2.50709ZM27.5779 0C26.1933 0 25.0708 1.12246 25.0708 2.50709V32.5921C25.0708 33.9768 26.1933 35.0992 27.5779 35.0992H30.085C31.4696 35.0992 32.5921 33.9768 32.5921 32.5921V2.50709C32.5921 1.12246 31.4696 0 30.085 0H27.5779ZM37.6064 2.50709C37.6064 1.12246 38.7289 0 40.1135 0H42.6206C44.0052 0 45.1277 1.12246 45.1277 2.50709V32.5921C45.1277 33.9768 44.0052 35.0992 42.6206 35.0992H40.1135C38.7289 35.0992 37.6064 33.9768 37.6064 32.5921V2.50709ZM52.6487 0C51.2641 0 50.1416 1.12246 50.1416 2.50709V32.5921C50.1416 33.9768 51.2641 35.0992 52.6487 35.0992H55.1558C56.5404 35.0992 57.6629 33.9768 57.6629 32.5921V2.50709C57.6629 1.12246 56.5404 0 55.1558 0H52.6487ZM62.6768 2.50709C62.6768 1.12246 63.7992 0 65.1838 0H67.6909C69.0756 0 70.198 1.12246 70.198 2.50709V32.5921C70.198 33.9768 69.0756 35.0992 67.6909 35.0992H65.1838C63.7992 35.0992 62.6768 33.9768 62.6768 32.5921V2.50709ZM77.7195 0C76.3349 0 75.2124 1.12246 75.2124 2.50709V32.5921C75.2124 33.9768 76.3349 35.0992 77.7195 35.0992H80.2266C81.6112 35.0992 82.7337 33.9768 82.7337 32.5921V2.50709C82.7337 1.12246 81.6112 0 80.2266 0H77.7195ZM87.748 2.50709C87.748 1.12246 88.8705 0 90.2551 0H92.7622C94.1468 0 95.2693 1.12246 95.2693 2.50709V32.5921C95.2693 33.9768 94.1468 35.0992 92.7622 35.0992H90.2551C88.8705 35.0992 87.748 33.9768 87.748 32.5921V2.50709ZM102.791 0C101.406 0 100.284 1.12246 100.284 2.50709V32.5921C100.284 33.9768 101.406 35.0992 102.791 35.0992H105.298C106.682 35.0992 107.805 33.9768 107.805 32.5921V2.50709C107.805 1.12246 106.682 0 105.298 0H102.791Z" fill="white" style="fill:white;fill-opacity:1;"/>
</svg>
