<?xml version="1.0" encoding="UTF-8"?>

<svg version="1.1" xmlns="http://www.w3.org/2000/svg" xmlns:xlink="http://www.w3.org/1999/xlink">
    <symbol viewBox="0 0 160 68" id="logo-ua" xmlns="http://www.w3.org/2000/svg">
        <path fill-rule="evenodd" clip-rule="evenodd" d="M76.6865 51.7652C76.9494 51.6153 77.2839 51.6984 77.4468 51.9561C77.6129 52.2214 77.5261 52.573 77.2502 52.7348C77.2201 52.7509 77.1886 52.7684 77.1566 52.7863C77.1308 52.8006 77.1047 52.8153 77.0786 52.8297C73.8367 54.6706 70.0214 55.7026 66.2571 55.7566H65.965C63.1097 55.7566 60.2132 55.2012 57.5589 54.1486C56.3447 53.6633 55.3466 53.1165 54.5668 52.5072C53.8153 52.7477 52.9432 52.8879 51.9125 52.9418C47.2674 53.1705 42.2086 51.5949 36.8706 48.2754C34.5747 46.8454 32.3841 45.2213 30.2674 43.65L30.2248 43.6184C28.2809 42.1777 26.2675 40.6854 24.1953 39.3653C24.1365 39.3286 24.079 39.2923 24.022 39.2563C23.9251 39.1952 23.8297 39.135 23.7326 39.0752H23.7315V39.0742C23.4795 38.9178 23.2276 38.7646 22.9778 38.6158C22.7269 38.467 22.4782 38.3225 22.2295 38.1844C22.2295 38.1844 22.2291 38.1844 22.2288 38.1842C22.2286 38.184 22.2284 38.1838 22.2284 38.1834C21.6398 37.848 21.0609 37.5417 20.4896 37.2559L20.4885 37.2548C19.5002 36.7663 18.5271 36.3435 17.5725 35.9877H17.5714C17.0208 35.7806 16.4788 35.5983 15.9401 35.4409C15.9228 35.4355 15.9057 35.4304 15.8886 35.4252C15.8714 35.4201 15.8543 35.415 15.837 35.4096C15.5133 35.3126 15.1929 35.2263 14.8725 35.1497C14.828 35.1389 14.7824 35.1281 14.7368 35.1174L14.5706 35.0785C14.549 35.0737 14.5276 35.0691 14.5062 35.0645C14.4847 35.06 14.4632 35.0554 14.4414 35.0505C12.8894 34.6989 11.37 34.5372 9.88429 34.562C6.57833 34.6202 3.84473 35.7429 2.37964 37.6409C1.7204 38.495 1.31965 39.5346 1.17846 40.6422C0.981886 42.1671 1.28272 43.8247 2.09184 45.3043C3.62752 48.1266 6.46538 49.7928 8.56908 50.6922C11.1908 51.8105 14.0656 52.3907 16.8665 52.93L16.8166 54.0526V54.0569C13.907 53.4972 10.9106 52.9084 8.12705 51.7156C5.85611 50.7461 2.79777 48.9386 1.10244 45.8392C0.164085 44.1234 -0.17042 42.1919 0.0804589 40.4093C0.255314 39.141 0.726662 37.9483 1.49125 36.9615C3.16486 34.7895 6.21559 33.5094 9.86366 33.4469C11.3657 33.422 12.8938 33.572 14.4501 33.9073H14.4512C14.9475 34.0109 15.4438 34.1349 15.9488 34.2805C16.5038 34.4336 17.0588 34.6116 17.6214 34.8143H17.6224C18.5499 35.1422 19.4839 35.5358 20.4353 35.9877C21.024 36.2691 21.6202 36.5722 22.2208 36.8989C22.2208 36.8989 22.2219 36.8989 22.2219 36.9C22.7193 37.1729 23.2189 37.4587 23.7239 37.7617C23.7244 37.7617 23.7247 37.762 23.725 37.7622C23.7253 37.7625 23.7255 37.7628 23.7261 37.7628C24.0834 37.9741 24.4429 38.1963 24.8002 38.4249C26.8853 39.7502 28.8908 41.2365 30.8302 42.6737L30.9397 42.7549L31.0496 42.8363C33.119 44.3693 35.2525 45.9499 37.4669 47.3264C42.605 50.5261 47.4466 52.0381 51.8539 51.8235C52.1666 51.8105 52.4588 51.7857 52.7346 51.7523C53.0474 51.7156 53.3396 51.666 53.6154 51.6078C52.9095 50.7871 52.5174 49.8672 52.4295 48.8394C52.4219 48.7143 52.4175 48.5903 52.4219 48.4706C52.4588 47.3102 53.1224 46.2781 54.1205 45.8802C54.809 45.6063 55.6181 45.6731 56.3404 46.0624C57.1256 46.4852 57.6925 47.2185 57.8511 48.0231C57.9683 48.6108 57.901 49.2244 57.6762 49.809C57.371 50.5962 56.7824 51.322 55.982 51.844C55.9059 51.8893 55.831 51.9346 55.7561 51.9809C55.9646 52.1211 56.1948 52.2581 56.4359 52.3907C56.8953 52.6442 57.409 52.8836 57.977 53.1079C60.5847 54.1486 63.4442 54.6781 66.2398 54.6371C69.8835 54.5875 73.5695 53.5716 76.6865 51.7652ZM53.5524 48.7435C53.6317 49.6677 54.0444 50.4884 54.8003 51.2185C55.0002 51.1268 55.188 51.019 55.3683 50.9068C55.9027 50.5628 56.311 50.0861 56.5489 49.5771C56.7574 49.1338 56.8367 48.669 56.7498 48.2387C56.6531 47.7621 56.2904 47.3059 55.8017 47.0406C55.5432 46.9036 55.2673 46.8292 55.0088 46.8292C54.8459 46.8292 54.6874 46.8583 54.5418 46.9166C53.824 47.2024 53.5025 48.0306 53.5481 48.7143C53.5481 48.7217 53.5495 48.7276 53.5507 48.7328C53.5516 48.7367 53.5524 48.7402 53.5524 48.7435ZM20.5472 67.999C22.4347 67.999 24.217 67.4393 25.5333 66.3932C27.701 64.672 28.5916 61.6189 27.6989 58.9692C26.9169 56.6538 24.8078 54.7568 22.2512 54.031L22.3001 55.2184C24.3451 55.9086 26.0024 57.4572 26.6323 59.324C27.3676 61.5014 26.6085 64.109 24.8295 65.5218C23.3438 66.7016 21.1293 67.1524 18.9105 66.7243C17.2586 66.4061 15.5785 65.6447 13.6551 64.3387C13.4031 64.1673 13.0577 64.2287 12.8807 64.4757C12.6982 64.7313 12.7634 65.0861 13.0241 65.263C15.0767 66.6552 16.8893 67.4727 18.6976 67.8199C19.3178 67.9407 19.9379 67.999 20.5472 67.999Z" fill="#9E2230" />
        <path fill-rule="evenodd" clip-rule="evenodd" d="M22.2283 38.1833V38.1185L22.2229 36.901L22.0839 5.58092L19.0364 1.99942L16.1443 5.55827L15.9499 34.2782L15.9423 35.43V35.4397C15.4383 35.2887 14.9398 35.1582 14.4446 35.0493V35.0461L14.4522 33.9083L14.6444 5.3717C14.6455 5.14954 14.7237 4.93493 14.8638 4.7613L18.5564 0.221067C18.7921 -0.0690339 19.2352 -0.0733476 19.4774 0.210282L23.3502 4.75914C23.5001 4.93493 23.5827 5.15817 23.5837 5.38895L23.726 37.7616L23.7293 38.9942L23.7314 39.0762C23.2253 38.7602 22.7247 38.4626 22.2283 38.1833ZM148.803 24.6855H149.011L160.001 49.2287H156.14L154.216 44.6367H143.18L141.185 49.2287H137.847L148.803 24.6855ZM148.797 31.7062L144.637 41.2838H152.813L148.797 31.7062ZM130.786 25.6648H135.134L124.735 35.7676L135.726 49.2266H131.448L122.266 37.7886L120.144 39.7104V49.2266H116.736V25.6648H120.144V35.1486L120.154 35.786L120.818 35.1324L130.786 25.6648ZM99.1602 24.6866L88.2041 49.2266H91.5437L99.1559 31.7062L106.499 49.2266H110.359L99.3688 24.6866H99.1602ZM61.2439 37.505C61.2439 30.8575 66.6905 25.4448 73.3893 25.4448C80.0881 25.4448 85.5346 30.8575 85.5346 37.505C85.5346 44.1568 80.0881 49.5695 73.3893 49.5695C66.6905 49.5695 61.2439 44.1568 61.2439 37.505ZM64.5868 37.505C64.5868 42.3246 68.5357 46.249 73.3893 46.249C78.2439 46.249 82.1918 42.3257 82.1918 37.505C82.1918 32.6844 78.2429 28.7643 73.3893 28.7643C68.5346 28.7643 64.5868 32.6855 64.5868 37.505ZM43.2773 25.6648H42.314V49.2276H45.6873V29.0155H58.6113V25.6648H45.6873H43.2773ZM15.9336 36.5937C15.4297 36.4395 14.9312 36.3036 14.436 36.186L14.3578 47.7674H9.61388C9.20009 47.7674 8.8645 48.1006 8.8645 48.5115C8.8645 48.9224 9.20009 49.2557 9.61388 49.2557H15.8478L15.9336 36.5937ZM28.0398 49.2556C28.4547 49.2567 28.7903 48.9224 28.7903 48.5115C28.7903 48.1006 28.4547 47.7674 28.0398 47.7674L23.7673 47.7642L23.7358 40.3111C23.2297 39.9929 22.729 39.691 22.2327 39.4062L22.2761 49.2524L28.0398 49.2556ZM19.4818 36.7461L19.4817 36.7461C18.8408 36.4118 18.2078 36.0816 17.5791 35.856L17.5802 35.8312L17.6204 34.9048L18.4338 5.19162C18.4414 4.91554 18.6782 4.69446 18.9671 4.69446C19.256 4.69446 19.4916 4.91446 19.5003 5.19054L20.4365 36.0361L20.4876 37.2159L20.4886 37.2569C20.1505 37.0949 19.8151 36.92 19.4818 36.7461ZM17.5215 37.1394C18.5108 37.5169 19.5122 37.9644 20.5396 38.4864L21.3368 57.853V57.9317C21.3368 58.3998 21.1988 58.8517 20.9404 59.241C20.4766 59.9247 19.7381 60.2687 18.9952 60.2687C18.2567 60.2687 17.5171 59.9247 17.0544 59.241C16.7786 58.8312 16.6407 58.3459 16.6624 57.853L16.771 55.1796L16.8166 54.0569V54.0526L16.8666 52.9299L17.5215 37.1394ZM18.9996 57.9479C19.3243 57.9479 19.6458 57.7872 19.8261 57.468C19.9086 57.3181 19.9466 57.1531 19.9423 56.9827L19.7424 51.6444C19.7381 51.4956 19.6881 51.3543 19.5958 51.2346C19.4503 51.0394 19.2287 50.9402 19.0072 50.9402C18.791 50.9402 18.5738 51.0351 18.4272 51.226C18.336 51.3425 18.2817 51.4913 18.2773 51.6412L18.0601 56.9784C18.0558 57.1488 18.0938 57.3138 18.1774 57.4637C18.3566 57.7872 18.6781 57.9479 18.9996 57.9479Z" fill="currentColor"/>
    </symbol>

    <symbol viewBox="0 0 154 68" id="logo-en" xmlns="http://www.w3.org/2000/svg">
        <path fill-rule="evenodd" clip-rule="evenodd" d="M75.9614 51.6894C76.1012 51.7251 76.2213 51.8151 76.2955 51.9398C76.3364 52.0032 76.364 52.0744 76.3768 52.1489C76.3895 52.2235 76.3871 52.2999 76.3697 52.3735C76.3522 52.4471 76.3201 52.5164 76.2753 52.5771C76.2305 52.6377 76.1739 52.6886 76.109 52.7265C76.0747 52.745 76.0444 52.7634 76.0144 52.7817C75.9902 52.7964 75.9663 52.811 75.9406 52.8254C72.6831 54.6827 69.0165 55.6882 65.275 55.7499H64.9862C62.1511 55.7452 59.3426 55.1982 56.7097 54.1377C55.513 53.6519 54.5305 53.1092 53.7622 52.4954C52.9132 52.7547 52.0339 52.8993 51.1472 52.9254C46.5705 53.1532 41.5834 51.5776 36.3279 48.2553C34.0709 46.8312 31.912 45.2051 29.8277 43.6337L29.7041 43.5408C27.8058 42.1136 25.8572 40.6486 23.8411 39.3452C23.6888 39.2453 23.5364 39.1464 23.3851 39.055C22.8878 38.7405 22.3941 38.4417 21.9039 38.1586C21.3292 37.829 20.7576 37.5209 20.1893 37.2343C19.2562 36.758 18.2982 36.3329 17.3196 35.9607C16.7776 35.7572 16.242 35.5748 15.7127 35.4136C15.2151 35.2642 14.7249 35.1309 14.2358 35.0234C12.7628 34.6794 11.2539 34.5167 9.74214 34.5387C6.48992 34.5968 3.79608 35.7167 2.35325 37.6159C1.70094 38.4953 1.29233 39.534 1.16936 40.6253C0.98027 42.2367 1.2935 43.8675 2.06554 45.291C3.58295 48.1113 6.37484 49.7783 8.45063 50.679C11.0326 51.8022 13.866 52.3804 16.6206 52.9178L16.5759 54.0421C13.7094 53.4864 10.7534 52.8931 8.0148 51.7022C5.77703 50.7328 2.75818 48.9196 1.08838 45.8177C0.192429 44.1609 -0.160102 42.2603 0.0813823 40.3889C0.238715 39.1358 0.716064 37.9455 1.46667 36.9344C3.11196 34.7655 6.12122 33.4843 9.7187 33.4177C11.2369 33.3949 12.7527 33.5468 14.2369 33.8702C14.7217 33.9744 15.2151 34.098 15.7127 34.2399C16.2562 34.4001 16.8071 34.5785 17.358 34.7773C18.2673 35.1141 19.1908 35.5082 20.1286 35.9596C20.7083 36.238 21.2965 36.5497 21.889 36.8721C22.3784 37.1422 22.8718 37.4289 23.3691 37.732C23.7239 37.9469 24.0777 38.1715 24.4347 38.3994C26.5233 39.7515 28.5383 41.2648 30.483 42.733C32.5514 44.2936 34.69 45.9058 36.914 47.3031C41.9756 50.5049 46.7452 52.0225 51.0865 51.8076C51.3912 51.7904 51.679 51.77 51.955 51.7323C52.2466 51.7011 52.5363 51.6526 52.8223 51.5872C52.1463 50.8169 51.7352 49.8469 51.6502 48.8218C51.6388 48.6974 51.636 48.5725 51.6417 48.4477C51.6747 47.2912 52.329 46.2584 53.3157 45.8607C53.9934 45.5823 54.7916 45.649 55.4991 46.0391C56.276 46.4615 56.8354 47.1956 56.991 48.0038C57.1 48.6031 57.0402 49.2213 56.8184 49.788C56.4869 50.6259 55.9033 51.3379 55.1496 51.8237C55.075 51.8742 55.0015 51.9194 54.9269 51.9645C55.1326 52.1021 55.3553 52.2386 55.5929 52.3751C56.0856 52.6445 56.5938 52.8842 57.1146 53.093C60.0863 54.2983 63.2915 54.8037 66.4861 54.5709C69.6807 54.3381 72.7805 53.3731 75.5495 51.7495C75.6736 51.6754 75.8216 51.6538 75.9614 51.6894ZM52.7605 48.7293C52.8341 49.6461 53.2401 50.4673 53.986 51.2014C54.1821 51.1125 54.3716 51.0094 54.5529 50.8929C55.0565 50.5679 55.4597 50.1069 55.7165 49.5623C55.9209 49.1493 55.9903 48.6816 55.9147 48.2263C55.8199 47.7491 55.4619 47.2934 54.9813 47.0279C54.7426 46.8921 54.4742 46.8182 54.2002 46.813C54.0412 46.8117 53.8835 46.8413 53.7356 46.9C53.0323 47.1827 52.7158 48.0157 52.7605 48.7003V48.7293ZM20.2425 67.9983C22.102 67.9983 23.8581 67.433 25.1549 66.3861C27.2914 64.6632 28.1684 61.6086 27.2893 58.9635C26.5189 56.6441 24.442 54.746 21.9229 54.0195L21.9709 55.2082C23.9859 55.8993 25.6184 57.4491 26.2386 59.3171C26.9622 61.4958 26.2152 64.1054 24.4623 65.5198C22.9992 66.7 20.8168 67.1525 18.6302 66.7225C17.002 66.4044 15.3471 65.6424 13.4525 64.3354C13.3327 64.2532 13.1858 64.2215 13.0432 64.2473C12.9005 64.273 12.7736 64.354 12.6895 64.473C12.6468 64.5338 12.6165 64.6026 12.6005 64.6753C12.5844 64.7481 12.5829 64.8233 12.596 64.8966C12.6091 64.97 12.6365 65.04 12.6767 65.1025C12.7169 65.165 12.7691 65.2188 12.8301 65.2608C14.8527 66.6538 16.6386 67.4717 18.4203 67.8199C19.0206 67.9384 19.6308 67.9981 20.2425 67.9983Z" fill="#9E2230" />
        <path fill-rule="evenodd" clip-rule="evenodd" d="M23.3797 39.0486V38.9669V37.7341L23.2401 5.52978C23.2391 5.17551 23.1142 4.83296 22.8874 4.56246L19.2643 0.241747C19.1995 0.16449 19.1185 0.102617 19.0273 0.0605516C18.936 0.0184862 18.8366 -0.00273438 18.7362 -0.00160513C18.6359 -0.000475883 18.537 0.0229764 18.4467 0.0670854C18.3564 0.111194 18.2768 0.174871 18.2137 0.253569L14.7611 4.56675C14.5481 4.83207 14.4308 5.16257 14.4286 5.50398L14.2411 33.8788L14.2336 35.017C14.7203 35.1266 15.2119 35.257 15.7084 35.4082V35.3985L15.7159 34.2453L15.9077 5.50505L18.7571 1.94423L21.76 5.52763L21.8964 36.87L21.9028 38.0877V38.1533C22.3901 38.4356 22.8824 38.734 23.3797 39.0486ZM142.745 25.3191H142.549L132.106 49.0873H135.288L137.192 44.6408H147.714L149.552 49.0873H153.232L142.745 25.3191ZM138.571 41.3938L142.549 32.1161L146.377 41.3938H138.571ZM67.0639 28.0237C68.9683 26.7395 71.2075 26.0538 73.4983 26.0531C76.5699 26.0554 79.5151 27.2869 81.6874 29.4774C83.8597 31.6678 85.0815 34.6381 85.0846 37.7363C85.0846 40.0468 84.4053 42.3055 83.1327 44.2267C81.8601 46.1479 80.0512 47.6454 77.9349 48.5297C75.8185 49.4141 73.4897 49.6456 71.2429 49.1951C68.9961 48.7446 66.9322 47.6322 65.3121 45.9986C63.692 44.365 62.5886 42.2836 62.1413 40.0175C61.694 37.7514 61.9229 35.4024 62.7992 33.2676C63.6754 31.1327 65.1595 29.3078 67.0639 28.0237ZM68.8328 44.7809C70.2138 45.7115 71.8374 46.2081 73.4983 46.2078C75.7242 46.2053 77.8583 45.3123 79.4323 43.7247C81.0062 42.1371 81.8916 39.9846 81.8942 37.7395C81.8944 36.0643 81.402 34.4267 80.4795 33.0337C79.5569 31.6407 78.2455 30.555 76.7111 29.9139C75.1767 29.2727 73.4882 29.1049 71.8593 29.4316C70.2303 29.7584 68.7341 30.5651 67.5597 31.7496C66.3853 32.9341 65.5855 34.4433 65.2615 36.0864C64.9376 37.7294 65.104 39.4324 65.7396 40.98C66.3753 42.5277 67.4517 43.8504 68.8328 44.7809ZM40.2279 35.9811H52.769V26.2649H55.9839V45.0578C55.8854 44.9875 55.7826 44.9236 55.676 44.8665C54.8661 44.4194 53.9572 44.3484 53.1835 44.659C53.0393 44.7181 52.9005 44.79 52.769 44.874V39.2216H40.2279V49.0851H38.6455C38.431 49.0854 38.2186 49.043 38.0204 48.9603C37.8223 48.8777 37.6422 48.7564 37.4905 48.6034C37.3389 48.4505 37.2186 48.2688 37.1367 48.0689C37.0548 47.869 37.0127 47.6548 37.013 47.4385V26.2649H40.2279V35.9811ZM91.3385 26.266H94.5555V45.8435H106.727V49.0883H91.3385V26.266ZM129.512 26.266H125.366L115.861 35.4362L115.227 36.0703L115.218 35.4523V26.266H111.968V49.0883H115.218V39.8708L117.241 38.0093L125.996 49.0883H130.075L119.595 36.052L129.512 26.266ZM9.47137 47.747H14.144L14.2229 36.1574C14.7088 36.2749 15.2004 36.411 15.6977 36.5658L15.6135 49.2367H9.47137C9.3744 49.2367 9.27837 49.2174 9.18878 49.1799C9.09918 49.1425 9.01777 49.0877 8.9492 49.0185C8.88063 48.9493 8.82623 48.8672 8.78912 48.7768C8.75201 48.6865 8.73291 48.5896 8.73291 48.4918C8.73291 48.394 8.75201 48.2971 8.78912 48.2068C8.82623 48.1164 8.88063 48.0343 8.9492 47.9651C9.01777 47.896 9.09918 47.8411 9.18878 47.8037C9.27837 47.7662 9.3744 47.747 9.47137 47.747ZM23.4169 47.7459H27.6249C27.8161 47.7532 27.997 47.8349 28.1296 47.9739C28.2623 48.1129 28.3364 48.2983 28.3364 48.4912C28.3364 48.6842 28.2623 48.8696 28.1296 49.0086C27.997 49.1476 27.8161 49.2293 27.6249 49.2366H21.9474L21.9048 39.3828C22.3949 39.668 22.8887 39.97 23.386 40.2889L23.4169 47.7459ZM20.1339 36.0069L19.2121 5.13966C19.2036 5.00496 19.1446 4.87859 19.047 4.78623C18.9494 4.69388 18.8206 4.64247 18.6868 4.64247C18.553 4.64247 18.4242 4.69388 18.3266 4.78623C18.229 4.87859 18.1699 5.00496 18.1614 5.13966L17.3601 34.8741L17.3121 35.9865V36.0037C18.2915 36.3613 19.2519 36.7699 20.1893 37.2279V37.186L20.1339 36.0069ZM16.6142 52.9136L17.2642 37.114C18.2782 37.5094 19.2706 37.959 20.2372 38.4607L21.0183 57.8362V57.9146C21.0183 58.381 20.8823 58.837 20.6272 59.2259C20.4168 59.5425 20.1323 59.8019 19.7989 59.9813C19.4655 60.1607 19.0934 60.2545 18.7155 60.2545C18.3377 60.2545 17.9656 60.1607 17.6322 59.9813C17.2988 59.8019 17.0143 59.5425 16.8038 59.2259C16.5322 58.8157 16.3967 58.329 16.417 57.8362L16.5236 55.161L16.5694 54.0378L16.6142 52.9136ZM19.1935 57.8095C19.3363 57.7244 19.4539 57.6022 19.5339 57.4557C19.6128 57.3098 19.6524 57.1457 19.649 56.9796L19.4519 51.6335C19.4468 51.4833 19.3957 51.3384 19.3057 51.2187C19.2157 51.099 19.0911 51.0103 18.9491 50.9648C18.8071 50.9193 18.6547 50.9193 18.5127 50.9648C18.3707 51.0102 18.2461 51.0989 18.1561 51.2186C18.0645 51.3376 18.0126 51.4829 18.008 51.6335L17.7949 56.971C17.7893 57.14 17.829 57.3075 17.9099 57.4557C17.99 57.6022 18.1076 57.7244 18.2504 57.8095C18.3932 57.8947 18.556 57.9395 18.7219 57.9395C18.8878 57.9395 19.0507 57.8947 19.1935 57.8095Z" fill="currentColor" />
    </symbol>

    <symbol viewBox="0 0 78 68" id="logo-single" xmlns="http://www.w3.org/2000/svg">
        <path fill-rule="evenodd" clip-rule="evenodd" d="M22.2283 38.1828V38.1181L22.2229 36.9005L22.0839 5.58043L19.0364 1.99893L16.1443 5.55778L15.9499 34.2777L15.9423 35.4295V35.4392C15.4383 35.2882 14.9398 35.1577 14.4446 35.0488V35.0456L14.4522 33.9078L14.6444 5.37121C14.6455 5.14905 14.7237 4.93444 14.8638 4.76081L18.5564 0.220578C18.7921 -0.0695222 19.2352 -0.0738359 19.4774 0.209794L23.3502 4.75866C23.5001 4.93444 23.5827 5.15768 23.5837 5.38847L23.726 37.7611L23.7293 38.9938L23.7314 39.0757C23.2253 38.7597 22.7247 38.4621 22.2283 38.1828ZM14.436 36.1855C14.9312 36.303 15.4297 36.4389 15.9336 36.5931L15.8478 49.2551H9.61388C9.20009 49.2551 8.8645 48.9219 8.8645 48.511C8.8645 48.1001 9.20009 47.7669 9.61388 47.7669H14.3578L14.436 36.1855ZM28.0399 49.2552C28.4548 49.2562 28.7904 48.9219 28.7904 48.511C28.7904 48.1002 28.4548 47.7669 28.0399 47.7669L23.7674 47.7637L23.7359 40.3106C23.2298 39.9924 22.7291 39.6905 22.2328 39.4058L22.2762 49.2519L28.0399 49.2552ZM19.4817 36.7456L19.4816 36.7456C18.8407 36.4113 18.2077 36.0811 17.579 35.8555L17.5801 35.8307L17.6203 34.9043L18.4337 5.19113C18.4413 4.91505 18.6781 4.69397 18.967 4.69397C19.2558 4.69397 19.4915 4.91397 19.5002 5.19005L20.4364 36.0356L20.4874 37.2154L20.4885 37.2564C20.1504 37.0944 19.815 36.9195 19.4817 36.7456ZM17.5215 37.1388C18.5108 37.5162 19.5122 37.9638 20.5396 38.4858L21.3368 57.8524V57.9311C21.3368 58.3992 21.1988 58.851 20.9404 59.2404C20.4766 59.9241 19.7381 60.2681 18.9952 60.2681C18.2567 60.2681 17.5171 59.9241 17.0544 59.2404C16.7786 58.8306 16.6407 58.3453 16.6624 57.8524L16.771 55.179L16.8166 54.0563V54.052L16.8666 52.9293L17.5215 37.1388ZM18.9996 57.9473C19.3243 57.9473 19.6458 57.7866 19.8261 57.4674C19.9086 57.3175 19.9466 57.1525 19.9423 56.9821L19.7424 51.6438C19.7381 51.495 19.6881 51.3537 19.5958 51.234C19.4503 51.0388 19.2287 50.9396 19.0072 50.9396C18.791 50.9396 18.5738 51.0345 18.4272 51.2254C18.336 51.3419 18.2817 51.4907 18.2773 51.6406L18.0601 56.9778C18.0558 57.1482 18.0938 57.3132 18.1774 57.4631C18.3566 57.7866 18.6781 57.9473 18.9996 57.9473Z" fill="#393A48" />
        <path fill-rule="evenodd" clip-rule="evenodd" d="M76.6865 51.7644C76.9494 51.6145 77.2839 51.6975 77.4468 51.9553C77.6129 52.2206 77.5261 52.5721 77.2502 52.7339C77.2156 52.7525 77.1793 52.7727 77.1423 52.7934C77.1212 52.8052 77.0999 52.8171 77.0786 52.8288C73.8367 54.6697 70.0214 55.7018 66.2571 55.7557H65.965C63.1097 55.7557 60.2132 55.2003 57.5589 54.1477C56.3447 53.6624 55.3466 53.1157 54.5668 52.5064C53.8153 52.7469 52.9432 52.887 51.9125 52.941C47.2674 53.1696 42.2086 51.594 36.8706 48.2746C34.5747 46.8445 32.3841 45.2204 30.2674 43.6491L30.2248 43.6176C28.2809 42.1768 26.2675 40.6846 24.1953 39.3645C24.1365 39.3277 24.079 39.2914 24.022 39.2555C23.9251 39.1943 23.8297 39.1341 23.7326 39.0744H23.7315V39.0733C23.4795 38.9169 23.2276 38.7638 22.9778 38.615C22.7269 38.4661 22.4782 38.3216 22.2295 38.1836C22.2295 38.1836 22.2291 38.1836 22.2288 38.1834C22.2286 38.1832 22.2284 38.1829 22.2284 38.1825C21.6398 37.8471 21.0609 37.5408 20.4896 37.255L20.4885 37.254C19.5002 36.7654 18.5271 36.3427 17.5725 35.9868H17.5714C17.0208 35.7797 16.4788 35.5975 15.9401 35.44C15.9228 35.4346 15.9057 35.4295 15.8886 35.4244C15.8714 35.4193 15.8543 35.4141 15.837 35.4088C15.5133 35.3117 15.1929 35.2254 14.8725 35.1489C14.8415 35.1413 14.8099 35.1338 14.7781 35.1263C14.7644 35.123 14.7506 35.1198 14.7368 35.1165L14.5706 35.0777C14.549 35.0728 14.5276 35.0683 14.5062 35.0637C14.4847 35.0591 14.4632 35.0545 14.4414 35.0496C12.8894 34.6981 11.37 34.5363 9.88429 34.5611C6.57833 34.6193 3.84473 35.742 2.37964 37.6401C1.7204 38.4942 1.31965 39.5338 1.17846 40.6414C0.981886 42.1663 1.28272 43.8238 2.09184 45.3035C3.62752 48.1257 6.46538 49.7919 8.56908 50.6913C11.1908 51.8097 14.0656 52.3899 16.8665 52.9291L16.8166 54.0518V54.0561C13.907 53.4964 10.9106 52.9075 8.12705 51.7148C5.85611 50.7453 2.79777 48.9378 1.10244 45.8384C0.164085 44.1226 -0.17042 42.1911 0.0804589 40.4084C0.255314 39.1402 0.726662 37.9474 1.49125 36.9606C3.16486 34.7887 6.21559 33.5085 9.86366 33.446C11.3657 33.4212 12.8938 33.5711 14.4501 33.9065H14.4512C14.9475 34.01 15.4438 34.134 15.9488 34.2796C16.5038 34.4328 17.0588 34.6107 17.6214 34.8135H17.6224C18.5499 35.1413 19.4839 35.5349 20.4353 35.9868C21.024 36.2683 21.6202 36.5713 22.2208 36.8981C22.2208 36.8981 22.2219 36.8981 22.2219 36.8992C22.7193 37.172 23.2189 37.4578 23.7239 37.7608C23.7244 37.7608 23.7247 37.7611 23.725 37.7614C23.7253 37.7616 23.7255 37.7619 23.7261 37.7619C24.0834 37.9733 24.4429 38.1954 24.8002 38.4241C26.8853 39.7493 28.8908 41.2356 30.8302 42.6729L30.9397 42.754L31.0496 42.8355C33.119 44.3685 35.2525 45.949 37.4669 47.3255C42.605 50.5253 47.4466 52.0372 51.8539 51.8226C52.1666 51.8097 52.4588 51.7849 52.7346 51.7515C53.0474 51.7148 53.3396 51.6652 53.6154 51.6069C52.9095 50.7862 52.5174 49.8663 52.4295 48.8386C52.4219 48.7135 52.4175 48.5895 52.4219 48.4698C52.4588 47.3094 53.1224 46.2773 54.1205 45.8793C54.809 45.6054 55.6181 45.6723 56.3404 46.0616C57.1256 46.4843 57.6925 47.2177 57.8511 48.0222C57.9683 48.6099 57.901 49.2236 57.6762 49.8081C57.371 50.5954 56.7824 51.3212 55.982 51.8431C55.9059 51.8884 55.831 51.9337 55.7561 51.9801C55.9646 52.1203 56.1948 52.2572 56.4359 52.3899C56.8953 52.6433 57.409 52.8827 57.977 53.107C60.5847 54.1477 63.4442 54.6773 66.2398 54.6363C69.8835 54.5867 73.5695 53.5708 76.6865 51.7644ZM53.5524 48.7426C53.6317 49.6668 54.0444 50.4875 54.8003 51.2176C55.0002 51.126 55.188 51.0181 55.3683 50.906C55.9027 50.5619 56.311 50.0853 56.5489 49.5762C56.7574 49.133 56.8367 48.6682 56.7498 48.2379C56.6531 47.7612 56.2904 47.305 55.8017 47.0397C55.5432 46.9028 55.2673 46.8284 55.0088 46.8284C54.8459 46.8284 54.6874 46.8575 54.5418 46.9157C53.824 47.2015 53.5025 48.0297 53.5481 48.7135C53.5481 48.7208 53.5495 48.7268 53.5507 48.7319C53.5516 48.7359 53.5524 48.7393 53.5524 48.7426ZM20.5472 67.9984C22.4347 67.9984 24.217 67.4387 25.5333 66.3926C27.701 64.6714 28.5916 61.6184 27.6989 58.9686C26.9169 56.6532 24.8078 54.7563 22.2512 54.0305L22.3001 55.2178C24.3451 55.908 26.0024 57.4567 26.6323 59.3234C27.3676 61.5008 26.6085 64.1085 24.8295 65.5212C23.3438 66.7011 21.1293 67.1518 18.9105 66.7237C17.2586 66.4056 15.5785 65.6442 13.6551 64.3382C13.4031 64.1667 13.0577 64.2282 12.8807 64.4752C12.6982 64.7307 12.7634 65.0856 13.0241 65.2624C15.0767 66.6547 16.8893 67.4721 18.6976 67.8194C19.3178 67.9402 19.9379 67.9984 20.5472 67.9984Z" fill="#952E34" />
    </symbol>

    <symbol viewBox="0 0 22 22" id="phone" xmlns="http://www.w3.org/2000/svg">
        <path fill-rule="evenodd" clip-rule="evenodd" d="M18.6479 3.32019C20.403 5.07534 21.5452 7.28089 21.9585 9.70466C22.0188 10.0436 21.7867 10.3686 21.4478 10.4197C21.4106 10.4244 21.3781 10.429 21.341 10.429C21.0391 10.429 20.7744 10.2154 20.7234 9.90897C20.3566 7.74521 19.335 5.77183 17.7657 4.20241C16.1962 2.63763 14.2228 1.61148 12.0591 1.24466C11.7155 1.1843 11.4879 0.863915 11.5437 0.520314C11.604 0.181357 11.9245 -0.0508055 12.2633 0.00955638C14.6872 0.422806 16.8927 1.56504 18.6479 3.32019ZM17.371 13.6282C16.9206 13.1592 16.3773 12.9085 15.8015 12.9085C15.2304 12.9085 14.6825 13.1546 14.2135 13.6236L12.7462 15.0862C12.6664 15.0432 12.5866 15.0023 12.5082 14.962C12.4679 14.9414 12.428 14.9209 12.3887 14.9005C12.2216 14.8169 12.0638 14.7379 11.9291 14.6544C10.5547 13.7814 9.30557 12.6438 8.1077 11.1719C7.52725 10.4383 7.13724 9.82074 6.85403 9.1939C7.19888 8.87846 7.52103 8.55161 7.83377 8.23402L7.93118 8.13524C8.06119 8.00523 8.19119 7.87057 8.32132 7.74056C9.2963 6.76548 9.2963 5.50251 8.32132 4.52743L7.05362 3.25983C6.9097 3.11589 6.76114 2.9673 6.62186 2.81872C6.34329 2.53083 6.05069 2.23367 5.74893 1.95507C5.29849 1.50932 4.75992 1.27251 4.19339 1.27251C3.62698 1.27251 3.07901 1.50932 2.61465 1.95507L2.60538 1.96436L1.02676 3.557C0.432403 4.15133 0.093414 4.87568 0.0190732 5.71611C-0.092255 7.07193 0.307037 8.3349 0.613433 9.1614C1.36563 11.1905 2.48929 13.071 4.16556 15.0862C6.19925 17.5146 8.64627 19.4323 11.4416 20.7835C12.5094 21.2896 13.935 21.8885 15.5276 21.9907C15.5784 21.9931 15.6304 21.9955 15.6817 21.9973C15.7289 21.9989 15.7755 22 15.8201 22C16.8927 22 17.7935 21.6146 18.4993 20.8485C18.5016 20.8438 18.5052 20.8403 18.5086 20.8368C18.512 20.8334 18.5155 20.8299 18.5179 20.8252C18.7414 20.5544 18.9966 20.3075 19.2654 20.0476L19.3304 19.9848C19.5301 19.7944 19.7344 19.5948 19.934 19.3858C20.3937 18.9076 20.6352 18.3504 20.6352 17.7793C20.6352 17.2035 20.3891 16.651 19.9201 16.1866L17.371 13.6282ZM19.0332 18.5175C18.8846 18.6777 18.7327 18.8253 18.5725 18.981L18.4667 19.084C18.1649 19.3719 17.8586 19.6737 17.5706 20.0127C17.1016 20.5141 16.5491 20.7509 15.8247 20.7509C15.7552 20.7509 15.6808 20.7509 15.6111 20.7463C14.2321 20.6581 12.9506 20.1195 11.9894 19.6598C9.36136 18.3875 7.05362 16.5813 5.13602 14.2922C3.55264 12.3838 2.49393 10.6194 1.79288 8.72493C1.36099 7.56876 1.20316 6.66797 1.27286 5.81826C1.31924 5.275 1.52823 4.8246 1.9136 4.43921L3.49698 2.85586C3.7244 2.64227 3.96585 2.52619 4.20267 2.52619C4.49527 2.52619 4.73209 2.70264 4.88065 2.85122L4.89456 2.86515C5.17776 3.12981 5.44705 3.40377 5.73038 3.69629C5.8743 3.84488 6.02286 3.99346 6.17142 4.14669L7.43899 5.4143C7.93118 5.90648 7.93118 6.36152 7.43899 6.8537C7.30435 6.98835 7.17435 7.12301 7.0397 7.25302C6.64969 7.65234 6.27823 8.0238 5.8743 8.38598C5.86502 8.39526 5.85574 8.3999 5.8511 8.40919C5.45169 8.80851 5.52603 9.19854 5.60965 9.46321L5.62357 9.505C5.95316 10.3036 6.41751 11.0558 7.12332 11.952L7.12796 11.9566C8.40945 13.5353 9.76065 14.7658 11.2511 15.7084C11.4416 15.8291 11.6365 15.9266 11.8223 16.0195C11.9894 16.1031 12.1472 16.182 12.282 16.2656C12.2913 16.2702 12.3006 16.276 12.3098 16.2818C12.3191 16.2876 12.3284 16.2934 12.3377 16.2981C12.4955 16.377 12.6441 16.4142 12.7974 16.4142C13.1828 16.4142 13.4242 16.1727 13.5031 16.0938L15.0911 14.5058C15.2489 14.3479 15.4998 14.1575 15.7923 14.1575C16.0801 14.1575 16.3169 14.3386 16.4608 14.4965L16.4701 14.5058L19.0286 17.0642C19.5069 17.5378 19.5069 18.0254 19.0332 18.5175ZM11.8733 5.23321C13.0899 5.43752 14.195 6.01328 15.0772 6.89549C15.9594 7.77771 16.5305 8.88281 16.7394 10.0993C16.7906 10.4058 17.0552 10.6194 17.357 10.6194C17.3904 10.6194 17.4201 10.6156 17.4527 10.6115L17.4638 10.6101C17.8074 10.5544 18.0349 10.2293 17.9793 9.88575C17.7284 8.41384 17.032 7.07194 15.9687 6.00863C14.9054 4.94533 13.5635 4.24884 12.0916 3.99811C11.748 3.94239 11.4276 4.16991 11.3672 4.50887C11.3069 4.84782 11.5297 5.17749 11.8733 5.23321Z" fill="currentColor"/>
    </symbol>

    <symbol viewBox="0 0 12 7" id="dropdown-arrow" xmlns="http://www.w3.org/2000/svg">
        <path d="M5.45544 6.28413L0.725765 1.75827C0.424745 1.47037 0.424745 1.0036 0.725765 0.715836C1.02652 0.428054 1.51431 0.428054 1.81504 0.715836L6.00008 4.72052L10.185 0.715953C10.4858 0.428171 10.9736 0.428171 11.2743 0.715953C11.5752 1.00374 11.5752 1.47049 11.2743 1.75839L6.54459 6.28424C6.39414 6.42814 6.19717 6.5 6.0001 6.5C5.80294 6.5 5.60582 6.428 5.45544 6.28413Z" fill="currentColor" />
    </symbol>

    <symbol viewBox="0 0 18 17" id="user" xmlns="http://www.w3.org/2000/svg">
        <path d="M14.9098 10.9896C13.984 10.0638 12.8821 9.37846 11.6798 8.96358C12.9675 8.07669 13.8135 6.59241 13.8135 4.91406C13.8135 2.20445 11.609 0 8.89941 0C6.18981 0 3.98535 2.20445 3.98535 4.91406C3.98535 6.59241 4.83133 8.07669 6.11905 8.96358C4.91677 9.37846 3.81482 10.0638 2.88902 10.9896C1.28358 12.595 0.399414 14.7296 0.399414 17H1.72754C1.72754 13.0454 4.94482 9.82812 8.89941 9.82812C12.854 9.82812 16.0713 13.0454 16.0713 17H17.3994C17.3994 14.7296 16.5152 12.595 14.9098 10.9896ZM8.89941 8.5C6.92213 8.5 5.31348 6.89138 5.31348 4.91406C5.31348 2.93675 6.92213 1.32812 8.89941 1.32812C10.8767 1.32812 12.4854 2.93675 12.4854 4.91406C12.4854 6.89138 10.8767 8.5 8.89941 8.5Z" fill="currentColor" />
    </symbol>

    <symbol viewBox="0 0 15 8" id="arrow-top" xmlns="http://www.w3.org/2000/svg">
        <path d="M8.24258 0.28783L14.6921 6.3223C15.1026 6.70617 15.1026 7.32854 14.6921 7.71222C14.282 8.09593 13.6169 8.09593 13.2068 7.71222L7.49989 2.37264L1.79321 7.71206C1.38293 8.09577 0.717829 8.09577 0.307712 7.71206C-0.102571 7.32835 -0.102571 6.70601 0.307712 6.32215L6.75737 0.287674C6.96253 0.0958192 7.23113 1.60755e-07 7.49986 1.49008e-07C7.76872 1.37256e-07 8.03752 0.0960056 8.24258 0.28783Z" fill="currentColor" />
    </symbol>

    <symbol viewBox="0 0 7 12" id="arrow-right" xmlns="http://www.w3.org/2000/svg">
        <path d="M6.74815 6.59406L1.46799 11.7537C1.1321 12.0821 0.587529 12.0821 0.25181 11.7537C-0.0839366 11.4256 -0.0839366 10.8935 0.25181 10.5654L4.92394 5.99991L0.251945 1.43457C-0.0838008 1.10635 -0.0838008 0.574263 0.251945 0.24617C0.587692 -0.0820565 1.13224 -0.0820565 1.46812 0.24617L6.74829 5.4059C6.91616 5.57002 7 5.7849 7 5.99989C7 6.21498 6.916 6.43002 6.74815 6.59406Z" fill="currentColor" />
    </symbol>

    <symbol viewBox="0 0 7 12" id="arrow-left" xmlns="http://www.w3.org/2000/svg">
        <path d="M0.251851 5.40594L5.53201 0.246289C5.8679 -0.0820975 6.41247 -0.0820975 6.74819 0.246289C7.08394 0.574381 7.08394 1.10652 6.74819 1.43458L2.07606 6.00009L6.74805 10.5654C7.0838 10.8937 7.0838 11.4257 6.74805 11.7538C6.41231 12.0821 5.86776 12.0821 5.53188 11.7538L0.251715 6.5941C0.0838418 6.42997 0 6.2151 0 6.00011C0 5.78502 0.0840049 5.56998 0.251851 5.40594Z" fill="currentColor" />
    </symbol>

    <symbol viewBox="0 0 12 23" id="facebook" xmlns="http://www.w3.org/2000/svg">
        <path d="M7.65708 12.3648H11.3793L11.9637 8.56055H7.65632V6.48134C7.65632 4.90099 8.16957 3.49962 9.63891 3.49962H12V0.179741C11.5852 0.123382 10.7078 0 9.04996 0C5.58819 0 3.55867 1.8393 3.55867 6.0297V8.56055H0V12.3648H3.55867V22.821C4.26344 22.9276 4.97729 23 5.71007 23C6.37245 23 7.01893 22.9391 7.65708 22.8522V12.3648Z" fill="currentColor" />
    </symbol>

    <symbol viewBox="0 0 20 16" id="twitter" xmlns="http://www.w3.org/2000/svg">
        <path d="M19.6 1.89999C18.9 2.19999 18.1 2.4 17.3 2.5C18.1 2 18.8 1.2 19.1 0.300003C18.3 0.800003 17.5 1.1 16.5 1.3C15.8 0.500003 14.7 0 13.6 0C11.4 0 9.59999 1.8 9.59999 4C9.59999 4.3 9.6 4.59999 9.7 4.89999C6.4 4.69999 3.39999 3.1 1.39999 0.699997C1.09999 1.3 0.899994 2 0.899994 2.7C0.899994 4.1 1.6 5.3 2.7 6C2 6 1.39999 5.8 0.899994 5.5C0.899994 7.4 2.29999 9.09999 4.09999 9.39999C3.79999 9.49999 3.4 9.5 3 9.5C2.7 9.5 2.5 9.49999 2.2 9.39999C2.7 11 4.2 12.2 6 12.2C4.6 13.3 2.9 13.9 1 13.9C0.7 13.9 0.4 13.9 0 13.8C1.8 14.9 3.9 15.6 6.2 15.6C13.6 15.6 17.6 9.5 17.6 4.2V3.7C18.4 3.4 19.1 2.69999 19.6 1.89999Z" fill="currentColor"/>
    </symbol>

    <symbol viewBox="0 0 19 17" id="telegram" xmlns="http://www.w3.org/2000/svg">
        <path d="M19 0.602225L15.9946 16.2923C15.9946 16.2923 15.5741 17.3801 14.4189 16.8584L7.48458 11.3526L7.45242 11.3364C8.38909 10.4654 15.6524 3.70266 15.9698 3.39612C16.4613 2.92136 16.1562 2.63873 15.5856 2.99736L4.85679 10.053L0.717638 8.61077C0.717638 8.61077 0.0662573 8.37083 0.00359284 7.84911C-0.0598962 7.32653 0.739076 7.0439 0.739076 7.0439L17.6131 0.188948C17.6131 0.188948 19 -0.44207 19 0.602225Z" fill="currentColor" />
    </symbol>

    <symbol viewBox="0 0 120 27" id="monobank" xmlns="http://www.w3.org/2000/svg">
        <path fill-rule="evenodd" clip-rule="evenodd" d="M67.6912 8.50071V12.7635C68.2157 13.5362 69.3917 14.1096 70.4165 14.1096C72.2683 14.1096 73.4941 12.7136 73.4941 10.6196C73.4941 8.52556 72.2683 7.1047 70.4165 7.1047C69.3917 7.1047 68.2157 7.70299 67.6912 8.50071ZM67.6912 15.0818V16.6274H64.5142V0H67.6912V6.1324C68.6408 4.91098 69.9925 4.28773 71.417 4.28773C74.4945 4.28773 76.7704 6.68089 76.7704 10.6196C76.7704 14.6331 74.4691 16.9265 71.417 16.9265C69.9671 16.9265 68.6408 16.2783 67.6912 15.0818ZM18.1852 16.6273V7.92716C18.1852 5.45924 16.8594 4.28762 14.6332 4.28762C12.7822 4.28762 11.1813 5.38449 10.4809 6.48135C10.0307 5.1103 8.90498 4.28762 7.129 4.28762C5.27793 4.28762 3.67708 5.43429 3.17674 6.15725V4.58677H0V16.6273H3.17674V8.52545C3.65201 7.8524 4.57749 7.10459 5.67811 7.10459C6.97893 7.10459 7.47916 7.90231 7.47916 9.02402V16.6273H10.681V8.5006C11.1312 7.8524 12.0568 7.10459 13.1823 7.10459C14.4832 7.10459 14.9834 7.90231 14.9834 9.02402V16.6273H18.1852ZM26.9042 16.9264C30.9064 16.9264 33.3078 14.0347 33.3078 10.5946C33.3078 7.17935 30.9064 4.28762 26.9042 4.28762C22.9269 4.28762 20.5256 7.17935 20.5256 10.5946C20.5256 14.0347 22.9269 16.9264 26.9042 16.9264ZM26.9042 14.1095C24.928 14.1095 23.8274 12.4892 23.8274 10.5946C23.8274 8.72487 24.928 7.10459 26.9042 7.10459C28.8803 7.10459 30.0059 8.72487 30.0059 10.5946C30.0059 12.4892 28.8803 14.1095 26.9042 14.1095ZM46.9959 8.12658V16.6273H43.8192V9.34812C43.8192 7.67792 42.9436 7.10459 41.5929 7.10459C40.3422 7.10459 39.3667 7.8026 38.8414 8.52545V16.6273H35.6645V4.58677H38.8414V6.15725C39.6168 5.23486 41.0926 4.28762 43.0687 4.28762C45.7203 4.28762 46.9959 5.78334 46.9959 8.12658ZM55.7532 16.9264C59.7555 16.9264 62.1566 14.0347 62.1566 10.5946C62.1566 7.17935 59.7555 4.28762 55.7532 4.28762C51.7761 4.28762 49.3747 7.17935 49.3747 10.5946C49.3747 14.0347 51.7761 16.9264 55.7532 16.9264ZM55.7532 14.1095C53.7773 14.1095 52.6766 12.4892 52.6766 10.5946C52.6766 8.72487 53.7773 7.10459 55.7532 7.10459C57.7296 7.10459 58.8551 8.72487 58.8551 10.5946C58.8551 12.4892 57.7296 14.1095 55.7532 14.1095ZM89.6019 16.6273V8.84954C89.6019 5.38449 87.0754 4.28762 84.3235 4.28762C82.422 4.28762 80.5216 4.88591 79.0452 6.1822L80.2455 8.30117C81.2714 7.35382 82.4717 6.8802 83.7725 6.8802C85.3737 6.8802 86.425 7.67792 86.425 8.89946V10.5197C85.6244 9.5725 84.1988 9.04897 82.5976 9.04897C80.6718 9.04897 78.3948 10.1209 78.3948 12.9378C78.3948 15.6301 80.6718 16.9264 82.5976 16.9264C84.1734 16.9264 85.599 16.3531 86.425 15.3809V16.6273H89.6019ZM83.873 14.7826C82.6219 14.7826 81.5971 14.1344 81.5971 13.0126C81.5971 11.841 82.6219 11.1929 83.873 11.1929C84.8989 11.1929 85.8993 11.5418 86.425 12.2398V13.7356C85.8993 14.4336 84.8989 14.7826 83.873 14.7826ZM104.083 8.12658V16.6273H100.906V9.34812C100.906 7.67792 100.032 7.10459 98.68 7.10459C97.43 7.10459 96.4538 7.8026 95.9293 8.52545V16.6273H92.7524V4.58677H95.9293V6.15725C96.7045 5.23486 98.1809 4.28762 100.156 4.28762C102.808 4.28762 104.083 5.78334 104.083 8.12658ZM119.045 16.6274L114.117 10.0462L118.895 4.58688H114.992L110.415 9.94652V0H107.238V16.6274H110.415V13.5362L111.866 11.9906L115.067 16.6274H119.045ZM117.941 22.0826H117.139V26.4331H117.941V24.8695H117.952L119.079 26.4331H120.002L118.624 24.7532L119.768 23.41L119.028 23.412L117.986 24.6408H117.941V22.0826ZM79.0176 22.2771V24.6629C79.0176 25.4755 79.2572 25.9198 79.9297 25.9198C80.5724 25.9198 80.8297 25.3811 80.8297 24.7098V22.2771H81.5883V24.8583C81.5883 25.9078 80.9025 26.5025 79.9054 26.5025C78.7647 26.5025 78.1706 25.9494 78.1706 24.8168V22.2771H79.0176ZM84.3876 23.3928C84.0088 23.3928 83.6312 23.5294 83.3595 23.8137V23.4633H82.5678V26.4304H83.3662V24.6626C83.3662 24.1755 83.6731 23.92 84.0629 23.92C84.4792 23.92 84.6648 24.1932 84.6648 24.6091V26.4304H85.462V24.5192C85.462 23.7716 85.0899 23.3928 84.3876 23.3928ZM86.4007 26.4315H87.1991V23.4643H86.4007V26.4315ZM86.3223 22.5746C86.3223 22.3495 86.5144 22.1176 86.785 22.1176C87.061 22.1176 87.2763 22.3434 87.2763 22.5746C87.2763 22.8295 87.0908 23.073 86.7971 23.073C86.5144 23.073 86.3223 22.8295 86.3223 22.5746ZM87.6882 23.4504L88.9659 26.4301H89.5246L90.8773 23.4504H90.1287C89.8526 24.1331 89.5964 24.7751 89.3259 25.5996H89.3137C89.1205 24.9668 88.9168 24.4415 88.7158 23.9228L88.7149 23.9206C88.6543 23.7642 88.5939 23.6084 88.5341 23.4504H87.6882ZM93.2537 24.5913C93.2846 24.1391 93.1223 23.8315 92.727 23.8315C92.2687 23.8315 92.0633 24.1932 92.0722 24.5913H93.2537ZM92.0589 25.0186C92.0412 25.5768 92.4366 25.9913 92.9357 25.9913C93.2316 25.9913 93.5419 25.8905 93.7418 25.7537L93.9693 26.1694C93.5607 26.4065 93.1344 26.5023 92.7921 26.5023C91.8844 26.5023 91.2064 25.8666 91.2064 24.8877C91.2064 23.9735 91.8789 23.3928 92.738 23.3928C93.6744 23.3928 94.0653 24.1339 94.0068 25.0186H92.0589ZM95.5859 23.9854H95.5738V23.4633H94.7787V26.4304H95.5793V24.9644C95.5793 24.324 95.8498 24.1044 96.1259 24.1044C96.2882 24.1044 96.3721 24.1391 96.5046 24.2052L96.805 23.6591C96.6372 23.4877 96.4439 23.3928 96.2639 23.3928C96.0177 23.3928 95.8366 23.6231 95.7482 23.7542L95.5859 23.9854ZM98.9373 24.0209C98.7573 23.8905 98.5707 23.8315 98.4272 23.8315C98.2472 23.8315 98.0661 23.932 98.0661 24.1339C98.0661 24.324 98.2515 24.4496 98.4976 24.6165C98.559 24.6581 98.6241 24.7022 98.6911 24.7506C99.1195 25.0665 99.2443 25.3748 99.2443 25.6463C99.2443 26.0632 98.7805 26.5023 98.1213 26.5023C97.7061 26.5023 97.4002 26.3592 97.1186 26.1637L97.3704 25.7537C97.5493 25.8969 97.8077 26.0384 98.023 26.0384C98.2538 26.0384 98.457 25.9195 98.457 25.6705C98.457 25.4374 98.2379 25.2915 97.9984 25.132L97.9982 25.1319C97.9512 25.1006 97.9034 25.0687 97.8563 25.0356C97.5139 24.8046 97.2798 24.5788 97.2798 24.2116C97.2798 23.7419 97.7348 23.3928 98.3245 23.3928C98.6558 23.3928 98.9793 23.4753 99.1968 23.666L98.9373 24.0209ZM100.626 25.5339C100.626 25.196 100.823 24.9766 101.213 24.8519L101.659 24.7096C101.719 25.5816 101.304 25.9736 100.987 25.9736C100.794 25.9736 100.626 25.7954 100.626 25.5339ZM100.699 26.5023C100.974 26.5023 101.25 26.3241 101.467 26.1459L101.647 25.9975C101.647 26.1578 101.664 26.3292 101.726 26.4304H102.573C102.475 26.2235 102.447 25.9439 102.447 25.7063V24.4964C102.447 23.5696 101.768 23.3928 101.213 23.3928C100.799 23.3928 100.434 23.4936 100.06 23.796L100.32 24.1701C100.53 23.9919 100.77 23.8673 101.114 23.8673C101.371 23.8673 101.617 24.039 101.659 24.3115L100.95 24.5192C100.254 24.7215 99.8384 25.0356 99.8384 25.6C99.8384 26.1459 100.229 26.5023 100.699 26.5023ZM103.341 26.4308H104.141V22.0695H103.341V26.4308ZM110.627 25.5339C110.627 25.196 110.826 24.9766 111.217 24.8519L111.662 24.7096C111.72 25.5816 111.305 25.9736 110.988 25.9736C110.795 25.9736 110.627 25.7954 110.627 25.5339ZM110.699 26.5023C110.976 26.5023 111.252 26.3241 111.467 26.1459L111.647 25.9975C111.647 26.1578 111.667 26.3292 111.727 26.4304H112.572C112.477 26.2235 112.447 25.9439 112.447 25.7063V24.4964C112.447 23.5696 111.768 23.3928 111.217 23.3928C110.802 23.3928 110.435 23.4936 110.062 23.796L110.32 24.1701C110.531 23.9919 110.772 23.8673 111.113 23.8673C111.374 23.8673 111.618 24.039 111.662 24.3115L110.953 24.5192C110.254 24.7215 109.84 25.0356 109.84 25.6C109.84 26.1459 110.231 26.5023 110.699 26.5023ZM114.135 23.8137C114.406 23.5294 114.785 23.3928 115.163 23.3928C115.866 23.3928 116.238 23.7716 116.238 24.5192V26.4304H115.439V24.6091C115.439 24.1932 115.253 23.92 114.839 23.92C114.448 23.92 114.141 24.1755 114.141 24.6626V26.4304H113.342V23.4633H114.135V23.8137ZM107.488 25.9311H107.056V24.5315H107.483C107.946 24.5315 108.313 24.7389 108.313 25.2259C108.313 25.6882 107.957 25.9311 107.488 25.9311ZM107.321 24.0212H107.056V22.7994H107.494C107.861 22.7994 108.139 22.9592 108.139 23.3264C108.139 23.7129 107.808 24.0212 107.321 24.0212ZM106.209 22.2885V26.442H107.604C108.594 26.442 109.201 25.9311 109.201 25.2134C109.201 24.5785 108.619 24.2232 108.096 24.199V24.1871C108.391 24.1104 108.938 23.8367 108.938 23.1725C108.938 22.6087 108.438 22.2885 107.729 22.2885H106.209Z" fill="currentColor"/>
    </symbol>

    <symbol viewBox="0 0 42 42" id="goal-1" xmlns="http://www.w3.org/2000/svg">
        <path fill-rule="evenodd" clip-rule="evenodd" d="M32.375 0H2.625C1.17526 0 0 1.17523 0 2.625V23.625C0 25.0747 1.17526 26.25 2.625 26.25H10.5V29.75H8.75V31.5H15.75V29.75H12.2499V26.25H14V24.5H2.625C2.14175 24.5 1.75 24.1083 1.75 23.625V2.625C1.75 2.14172 2.14175 1.75 2.625 1.75H32.375C32.8583 1.75 33.2501 2.14172 33.2501 2.625V18.375H35V2.625C35 1.17523 33.8248 0 32.375 0ZM5.24997 20.125C5.24997 20.6082 5.64175 21 6.125 21H7.87497V22.75H6.125C4.67526 22.75 3.5 21.5747 3.5 20.125V18.375H5.24997V20.125ZM5.24997 14.875H3.5V16.6249H5.24997V14.875ZM25.2552 15.7491C27.777 15.749 30.1956 16.7509 31.9786 18.5342C35.482 22.0383 35.6787 27.5965 32.569 31.3312L34.4118 33.1741L35.014 32.5719C35.1781 32.4078 35.4005 32.3156 35.6326 32.3156C35.8646 32.3156 36.0872 32.4078 36.2512 32.5719L41.7436 38.0625C42.0852 38.4042 42.0852 38.958 41.7436 39.2998L39.3024 41.741C39.1388 41.9061 38.9162 41.9993 38.6838 42C38.4518 42 38.2292 41.9078 38.0652 41.7437L32.5728 36.2504C32.2312 35.9087 32.2312 35.3548 32.5728 35.0131L33.1745 34.4114L31.3312 32.5682C29.6315 33.9806 27.4841 34.7629 25.256 34.7629C20.0055 34.7631 15.749 30.5068 15.7487 25.2563C15.7486 20.0059 20.0048 15.7493 25.2552 15.7491ZM17.4965 25.2542C17.495 29.5382 20.9667 33.0123 25.2507 33.0137C29.5347 33.0152 33.0088 29.5435 33.0102 25.2595C33.0109 23.2028 32.1948 21.23 30.7413 19.775C29.2906 18.3137 27.3151 17.4944 25.256 17.5C20.972 17.4985 17.498 20.9702 17.4965 25.2542ZM38.6837 39.8878L34.4286 35.6318L35.6325 34.4278L39.8877 38.6838L38.6837 39.8878ZM25.3749 21C27.79 21.0029 29.747 22.96 29.7499 25.375H31.4999C31.4961 21.9939 28.7561 19.2539 25.3749 19.25V21ZM13.125 3.5C11.6752 3.5 10.5 4.67529 10.5 6.125C10.5 6.53033 10.5918 6.91412 10.7559 7.25684L7.2562 10.7565L8.49362 11.9939L11.9933 8.4942C12.336 8.6582 12.7197 8.75 13.125 8.75C13.5285 8.75 13.9109 8.65894 14.2524 8.49622L16.8788 11.1226C16.7161 11.4642 16.625 11.8464 16.625 12.25C16.625 13.6997 17.8003 14.875 19.25 14.875C20.6997 14.875 21.875 13.6997 21.875 12.25C21.875 11.8455 21.7835 11.4623 21.6201 11.1201L24.2451 8.49506C24.5872 8.65851 24.9704 8.75 25.3749 8.75C26.8247 8.75 27.9999 7.57477 27.9999 6.125C28 4.67529 26.8248 3.5 25.3749 3.5C23.9252 3.5 22.7499 4.67529 22.7499 6.125C22.7499 6.53101 22.8421 6.91553 23.0067 7.25867L20.3836 9.88171C20.0405 9.71716 19.656 9.625 19.25 9.625C18.843 9.625 18.4577 9.71759 18.1139 9.88287L15.4921 7.26105C15.6574 6.9173 15.75 6.53198 15.75 6.125C15.75 4.67529 14.5747 3.5 13.125 3.5ZM13.125 7C12.6417 7 12.2499 6.60822 12.2499 6.12494C12.2499 5.64172 12.6417 5.24994 13.125 5.24994C13.6082 5.24994 14 5.64172 14 6.12494C14 6.60828 13.6082 7 13.125 7ZM18.375 12.25C18.375 12.7332 18.7668 13.125 19.25 13.125C19.7332 13.125 20.1249 12.7332 20.125 12.25C20.125 11.7667 19.7332 11.3749 19.25 11.3749C18.7668 11.3749 18.375 11.7667 18.375 12.25ZM25.3749 7C24.8917 7 24.4999 6.60822 24.4999 6.12494C24.4999 5.64172 24.8917 5.24994 25.3749 5.24994C25.8582 5.24994 26.25 5.64172 26.25 6.12494C26.25 6.60828 25.8582 7 25.3749 7Z" fill="currentColor"/>
    </symbol>

    <symbol viewBox="0 0 50 43" id="goal-2" xmlns="http://www.w3.org/2000/svg">
        <path fill-rule="evenodd" clip-rule="evenodd" d="M25.75 0V4.90802H24.25V0H25.75ZM39.3144 9.14461L36.7675 10.5735C36.6163 10.6615 36.5028 10.8077 36.4548 10.9828C36.4066 11.1591 36.4295 11.3473 36.5177 11.5056L43.8606 24.6621C43.953 24.8197 44.1006 24.9326 44.2706 24.98C44.4417 25.0277 44.6246 25.006 44.7811 24.9187L47.3318 23.4876C47.4071 23.4451 47.4742 23.3874 47.5283 23.3178C47.5825 23.2481 47.6228 23.1677 47.6465 23.0811C47.6702 22.9946 47.6767 22.904 47.6655 22.8147C47.6544 22.7254 47.6259 22.6396 47.5819 22.5623L47.5788 22.5567L45.9308 19.5978L47.2413 18.8679L48.8878 21.8243C49.0283 22.0725 49.1186 22.3459 49.154 22.6288C49.1895 22.9128 49.1688 23.2012 49.0932 23.4774C49.0176 23.7535 48.8883 24.0122 48.7126 24.2383C48.5369 24.4644 48.3181 24.6535 48.0685 24.7942L48.0672 24.795L45.514 26.2275L45.5127 26.2281C45.0116 26.5081 44.421 26.5791 43.8679 26.4249C43.315 26.2709 42.8462 25.9049 42.5594 25.4083L42.5539 25.3988L42.1867 24.7407C41.7669 24.9077 41.3724 25.1366 41.0163 25.4212C40.6452 25.7178 40.3218 26.0699 40.0571 26.4648C40.4447 26.9585 40.6713 27.5637 40.7021 28.1965C40.738 28.936 40.5041 29.6642 40.043 30.2425C39.5817 30.8211 38.9247 31.2097 38.1959 31.3318L38.1743 31.3353L38.1408 31.3405C38.1238 31.343 38.1068 31.3454 38.0898 31.3476C38.1174 31.4582 38.1389 31.5705 38.1539 31.684C38.2077 32.0889 38.1794 32.5007 38.0706 32.8944C37.9618 33.2881 37.7747 33.6557 37.5203 33.9748C37.2659 34.2939 36.9494 34.5578 36.5899 34.7499C36.2303 34.942 35.8353 35.0581 35.4292 35.091C35.3165 35.1001 35.2035 35.1027 35.091 35.0989C35.0972 35.1555 35.1019 35.2123 35.105 35.2694C35.1454 36.0165 34.9102 36.7534 34.443 37.3369C33.9757 37.9207 33.309 38.3098 32.5712 38.426C32.1378 38.4943 31.699 38.4654 31.2845 38.3461C31.273 38.5463 31.2419 38.7454 31.1911 38.9404C31.084 39.3523 30.8918 39.7371 30.6268 40.0696C30.3617 40.402 30.0296 40.6746 29.652 40.869C29.2743 41.0634 28.8598 41.1749 28.4358 41.196C28.0118 41.2171 27.5884 41.1473 27.1934 40.9912C26.8148 40.8416 26.4709 40.6163 26.1821 40.3294L24.8723 39.2952C24.7579 39.4798 24.6234 39.6527 24.4701 39.8104L24.4383 39.8431L24.4029 39.8716L22.4397 41.4537C22.1502 41.742 21.8053 41.9683 21.4255 42.1184C21.0305 42.2745 20.6071 42.3443 20.1831 42.3232C19.7591 42.3021 19.3446 42.1906 18.9669 41.9962C18.5893 41.8018 18.2572 41.5292 17.9921 41.1968C17.7271 40.8643 17.5349 40.4795 17.4278 40.0676C17.3206 39.6558 17.3008 39.2259 17.3696 38.8059C17.3904 38.6786 17.4192 38.5532 17.4557 38.4301L17.4287 38.426C16.691 38.3098 16.0243 37.9207 15.5569 37.3369C15.0897 36.7534 14.8545 36.0165 14.8949 35.2694C14.9014 35.1497 14.9149 35.031 14.9352 34.9138C14.8275 34.9077 14.7199 34.8957 14.6126 34.8778C13.8838 34.7557 13.2267 34.3671 12.7654 33.7885C12.3043 33.2102 12.0704 32.482 12.1064 31.7425C12.1131 31.6047 12.129 31.4683 12.1539 31.3341C12.0372 31.3285 11.9204 31.316 11.8041 31.2965C11.0752 31.1745 10.4182 30.7859 9.95692 30.2073C9.49581 29.629 9.26192 28.9008 9.29787 28.1613C9.32813 27.5387 9.54794 26.9428 9.92423 26.4536C9.66187 26.0639 9.3424 25.7161 8.97621 25.4225C8.62214 25.1386 8.22987 24.9097 7.8124 24.7422L7.44598 25.3988L7.44063 25.4084C7.15385 25.905 6.68492 26.2709 6.13203 26.4249C5.57893 26.5791 4.98837 26.5081 4.48721 26.2281L4.48599 26.2275L1.9328 24.795L1.93143 24.7942C1.68189 24.6535 1.46307 24.4644 1.28732 24.2383C1.1116 24.0122 0.982371 23.7535 0.90674 23.4774C0.831113 23.2013 0.810483 22.9128 0.845964 22.6288C0.881323 22.3457 0.971752 22.0721 1.11235 21.8239L8.45739 8.67533L8.46003 8.6706C8.74387 8.171 9.21143 7.80132 9.76454 7.64382C10.3179 7.48627 10.91 7.55452 11.4133 7.83298L11.4172 7.83514L13.9704 9.26763L13.9772 9.27146C14.4762 9.55829 14.8399 10.032 14.9918 10.5865C15.1437 11.1409 15.0723 11.7338 14.7924 12.236L14.7033 12.3956L17.5107 13.216C17.6737 13.0104 17.8719 12.8349 18.0931 12.6865C18.8571 12.1736 19.9818 11.9245 21.2753 11.805L25.3729 11.4313C26.3814 11.2781 27.412 11.403 28.3558 11.7927L27.8175 13.1934L26.3729 12.8708L24.4731 13.0196L21.4133 13.2987C20.1654 13.414 19.3633 13.6405 18.9291 13.9319C18.7293 14.066 18.637 14.1942 18.5931 14.3091C18.5486 14.4254 18.5257 14.6014 18.5919 14.8779C18.8303 15.8711 19.3841 16.4986 20.1419 16.8454C20.9278 17.2051 22.0016 17.2915 23.2814 17.0307C25.2341 16.622 26.6646 16.7901 28.0041 17.385C29.0333 17.8421 30.0047 18.5571 31.0814 19.3495L31.0827 19.3505C31.3342 19.5356 31.5915 19.725 31.8566 19.9162L31.8612 19.9196C33.109 20.8344 34.4219 21.871 35.6398 22.8327L35.6407 22.8335L35.6432 22.8354C36.0001 23.1172 36.3488 23.3925 36.6853 23.6564L36.6946 23.6637L38.9226 25.4689C39.2503 25.012 39.6394 24.6014 40.0799 24.2494C40.5001 23.9136 40.9612 23.6359 41.4509 23.4225L36.0385 13.7248L34.0016 14.3385L33.9929 14.3411C33.1573 14.5818 32.6155 14.7292 32.0577 14.6543C31.7829 14.6173 31.5325 14.5316 31.2834 14.4384C31.1951 14.4054 31.1065 14.3712 31.0125 14.3349L31.0114 14.3345C30.8216 14.2614 30.6092 14.1795 30.3316 14.0807L27.8374 13.2004L27.8175 13.1934L28.3558 11.7927L30.8318 12.6665L30.8336 12.6672C31.1288 12.7722 31.3794 12.8688 31.5779 12.9452C31.6652 12.9788 31.7425 13.0086 31.8089 13.0335C32.0443 13.1215 32.1609 13.1547 32.2575 13.1676C32.4422 13.1925 32.6601 13.1639 33.5733 12.9009L35.29 12.3837L35.2077 12.2364C34.9278 11.7342 34.8563 11.1409 35.0081 10.5865C35.16 10.032 35.5238 9.55832 36.0227 9.27149L36.0295 9.2676L38.5827 7.83515L38.5866 7.83297C39.0899 7.55452 39.6821 7.48627 40.2354 7.64382C40.7885 7.80132 41.2561 8.17101 41.5399 8.67061L41.545 8.67959L43.0304 11.3802L41.7161 12.1032L40.2336 9.4079C40.1421 9.24915 39.9948 9.13493 39.8246 9.08648C39.6539 9.03788 39.4711 9.05841 39.3144 9.14461ZM13.1023 29.6147L16.92 26.5369C16.9897 26.466 17.0526 26.3881 17.1077 26.304C17.2255 26.1243 17.3047 25.921 17.3396 25.7073C17.3746 25.4935 17.3645 25.2747 17.31 25.0654C17.2556 24.856 17.1581 24.6612 17.0245 24.4937C16.891 24.3262 16.7244 24.1898 16.5362 24.0929C16.3479 23.996 16.142 23.9407 15.9319 23.9303C15.7218 23.9198 15.5116 23.9544 15.3152 24.032C15.1187 24.1096 14.94 24.2287 14.7911 24.3819L14.7586 24.4153L14.7222 24.4445L11.1994 27.2656C10.9576 27.5286 10.8137 27.8714 10.7961 28.2341C10.7778 28.611 10.8972 28.9805 11.1298 29.2722C11.3621 29.5636 11.6907 29.7567 12.0519 29.8172C12.4129 29.8776 12.784 29.8019 13.0948 29.603L13.1023 29.6147ZM17.5348 27.968C17.6708 27.8756 17.7987 27.7724 17.9174 27.6596L19.0757 26.7258C19.38 26.5415 19.7383 26.4727 20.0873 26.5312C20.4485 26.5917 20.7771 26.7847 21.0094 27.0761C21.242 27.3678 21.3614 27.7373 21.3431 28.1142C21.3254 28.4778 21.1809 28.8213 20.9381 29.0845L15.8708 33.2045C15.5668 33.3882 15.2089 33.4568 14.8604 33.3984C14.4992 33.3379 14.1706 33.1448 13.9383 32.8534C13.7057 32.5617 13.5863 32.1923 13.6046 31.8153C13.6229 31.4384 13.7776 31.083 14.0368 30.8163L14.1634 30.6861L17.5348 27.968ZM18.8477 25.1824C18.8327 25.0158 18.804 24.8504 18.7617 24.6877C18.6546 24.2759 18.4624 23.891 18.1974 23.5586C17.9323 23.2261 17.6002 22.9535 17.2226 22.7592C16.8449 22.5648 16.4304 22.4532 16.0064 22.4321C15.5824 22.411 15.159 22.4809 14.764 22.637C14.3846 22.7869 14.0399 23.0129 13.7507 23.3008L11.058 25.4571C10.7335 25.0064 10.3492 24.6007 9.91455 24.2522C9.49578 23.9165 9.03617 23.6384 8.54793 23.4244L13.9534 13.7392L17.0519 14.6447C17.0583 14.8372 17.0864 15.0321 17.1333 15.2276C17.4752 16.653 18.3257 17.6638 19.5176 18.2094C20.6811 18.7419 22.1018 18.8023 23.5832 18.5L23.587 18.4992C25.2774 18.1452 26.3822 18.306 27.3953 18.7559C28.2616 19.1406 29.0672 19.7324 30.129 20.5123C30.3939 20.7069 30.6748 20.9132 30.9766 21.131C32.1996 22.0277 33.4817 23.04 34.6952 23.9982L34.697 23.9995C35.0568 24.2836 35.4105 24.563 35.7549 24.8331L38.7992 27.2994C39.0418 27.5626 39.1862 27.9059 39.2038 28.2693C39.2222 28.6463 39.1027 29.0157 38.8702 29.3074C38.6378 29.5988 38.3092 29.7919 37.9481 29.8524C37.6385 29.9042 37.3216 29.856 37.0416 29.7158C37.0145 29.6943 36.9871 29.6732 36.9593 29.6527L34.4196 27.5971L33.4759 28.763L36.0291 30.8295L36.0437 30.8413L36.0588 30.8524C36.0746 30.8639 36.0902 30.8758 36.1056 30.888L36.0968 30.9018C36.1266 30.9209 36.1567 30.9394 36.187 30.9574C36.2961 31.0572 36.3904 31.1732 36.4667 31.302C36.5714 31.479 36.6397 31.6761 36.667 31.8814C36.6943 32.0868 36.6799 32.2955 36.6248 32.4948C36.5697 32.6942 36.4752 32.8795 36.3475 33.0397C36.2198 33.1998 36.0616 33.3314 35.883 33.4268C35.7045 33.5222 35.509 33.5796 35.3084 33.5958C35.1079 33.612 34.9061 33.5867 34.7153 33.5213C34.5244 33.4559 34.3481 33.3517 34.1973 33.2144L34.1809 33.1995L34.1637 33.1856L31.4016 30.9547L30.4591 32.1216L30.482 32.1402L30.4591 32.1686L33.1868 34.3717C33.437 34.6348 33.5873 34.9818 33.6072 35.3504C33.6278 35.7313 33.5077 36.1051 33.2721 36.3994C33.0367 36.6935 32.7033 36.8867 32.3378 36.9443C31.9829 37.0002 31.6197 36.9249 31.3144 36.7314L28.583 34.5136L27.6375 35.6781L27.6562 35.6933L27.639 35.7146L29.02 36.83L29.0522 36.856L29.0871 36.8783C29.2659 36.9927 29.4194 37.1445 29.5371 37.3241C29.6549 37.5038 29.7341 37.7072 29.769 37.9209C29.804 38.1346 29.7939 38.3534 29.7394 38.5628C29.685 38.7722 29.5875 38.9669 29.4539 39.1345C29.3204 39.302 29.1538 39.4384 28.9656 39.5353C28.7774 39.6321 28.5714 39.6874 28.3613 39.6979C28.1512 39.7084 27.941 39.6738 27.7446 39.5961C27.5481 39.5185 27.3694 39.3995 27.2205 39.2463L27.1862 39.211L27.1475 39.1804L25.328 37.7439C25.3404 37.0372 25.1072 36.3463 24.6658 35.7927C24.3214 35.3607 23.8678 35.0346 23.3568 34.8463C23.8294 34.3461 24.1182 33.6961 24.1728 33.0048C24.2333 32.2381 24.0012 31.4759 23.5221 30.8751C23.173 30.4372 22.7117 30.109 22.1929 29.9232C22.5827 29.4286 22.8105 28.8217 22.8413 28.1871C22.8773 27.4476 22.6434 26.7194 22.1823 26.141C21.721 25.5625 21.064 25.1739 20.3351 25.0518C19.8325 24.9676 19.3211 25.0144 18.8477 25.1824ZM20.3166 31.5231L16.8139 34.3709C16.5632 34.6341 16.4127 34.9815 16.3927 35.3504C16.3721 35.7313 16.4923 36.1051 16.7279 36.3994C16.9633 36.6935 17.2967 36.8867 17.6622 36.9443C18.0171 37.0002 18.3804 36.9248 18.6858 36.7313L22.1998 33.8824C22.4756 33.6248 22.6472 33.2696 22.6774 32.8868C22.7082 32.4974 22.59 32.1121 22.3493 31.8102C22.1088 31.5086 21.7649 31.3137 21.3896 31.2626C21.0143 31.2116 20.6331 31.3079 20.3241 31.5334L20.3166 31.5231ZM19.5318 38.0055L19.516 37.9808L19.5426 37.9633L19.5723 37.9436L19.5999 37.9211L21.5116 36.3713L21.5279 36.3969C21.8388 36.1981 22.2098 36.1223 22.5709 36.1828C22.9321 36.2433 23.2606 36.4364 23.493 36.7278C23.7256 37.0195 23.845 37.3889 23.8267 37.7659C23.809 38.129 23.6649 38.472 23.4227 38.7351L21.4655 40.3123L21.4301 40.3409L21.3984 40.3735C21.2495 40.5267 21.0708 40.6457 20.8743 40.7233C20.6779 40.801 20.4677 40.8356 20.2576 40.8251C20.0475 40.8146 19.8416 40.7593 19.6533 40.6625C19.4651 40.5656 19.2985 40.4292 19.165 40.2617C19.0314 40.0941 18.9339 39.8994 18.8795 39.69C18.825 39.4806 18.8149 39.2618 18.8499 39.0481C18.8848 38.8344 18.964 38.631 19.0818 38.4513C19.1995 38.2717 19.353 38.1199 19.5318 38.0055ZM10.1753 9.08648C10.346 9.03788 10.5288 9.05842 10.6856 9.14463L10.6872 9.14549L13.2324 10.5735C13.3837 10.6615 13.4971 10.8077 13.5451 10.9828C13.5934 11.1591 13.5704 11.3474 13.4822 11.5057L6.13932 24.6621C6.04697 24.8197 5.89931 24.9326 5.72935 24.98C5.55823 25.0277 5.37529 25.006 5.21882 24.9187L2.66813 23.4876C2.59294 23.4451 2.52574 23.3874 2.47168 23.3178C2.41748 23.2481 2.37716 23.1677 2.35346 23.0811C2.32975 22.9946 2.32325 22.904 2.3344 22.8147C2.34555 22.7254 2.37409 22.6396 2.41802 22.5623L2.42069 22.5575L9.76539 9.4096C9.85676 9.24996 10.0046 9.1351 10.1753 9.08648ZM19.2882 6.54238L16.7466 2.46802L15.4739 3.26192L18.0155 7.33628L19.2882 6.54238ZM34.5269 3.26061L31.9969 7.33497L30.7226 6.54369L33.2526 2.46933L34.5269 3.26061Z" fill="currentColor" />
    </symbol>

    <symbol viewBox="0 0 42 42" id="goal-3" xmlns="http://www.w3.org/2000/svg">
        <path fill-rule="evenodd" clip-rule="evenodd" d="M21 5.35294C21.6823 5.35294 22.2353 4.79986 22.2353 4.11765V1.23529C22.2353 0.553081 21.6823 0 21 0C20.3178 0 19.7648 0.553081 19.7648 1.23529V4.11765C19.7648 4.79986 20.3178 5.35294 21 5.35294ZM21 10.1382C29.8206 10.1382 37.9025 15.5657 41.7198 20.2165C42.0935 20.672 42.0935 21.328 41.7198 21.7836C38.0682 26.2325 30.0207 31.8619 21 31.8619C12.2889 31.8619 4.1881 26.5468 0.280288 21.7835C-0.0934295 21.328 -0.0934295 20.672 0.280288 20.2165C4.06564 15.6026 12.1478 10.1382 21 10.1382ZM21 29.3913C25.627 29.3913 29.3912 25.6269 29.3912 21C29.3912 16.3736 25.6274 12.6088 21 12.6087C16.373 12.6087 12.6087 16.3731 12.6087 21C12.6087 25.6267 16.3729 29.3913 21 29.3913ZM12.3528 14.4351C7.64676 16.4367 4.29434 19.5553 2.90397 21.0003C5.44934 23.6506 8.77327 26.0466 12.3514 27.5631C9.39833 23.6811 9.39948 18.3157 12.3528 14.4351ZM29.6487 14.4369C32.6017 18.3189 32.6006 23.6842 29.6473 27.5649C34.3533 25.5633 37.7058 22.4448 39.0961 20.9996C36.5507 18.3495 33.2267 15.9534 29.6487 14.4369ZM21 25.2C18.6841 25.2 16.8 23.3159 16.8 21C16.8 18.6841 18.6841 16.8 21 16.8C23.3159 16.8 25.2 18.6841 25.2 21C25.2 23.3159 23.3159 25.2 21 25.2ZM21 22.7294C21.9536 22.7294 22.7295 21.9536 22.7295 21C22.7295 20.0464 21.9536 19.2706 21 19.2706C20.0464 19.2706 19.2706 20.0464 19.2706 21C19.2706 21.9536 20.0464 22.7294 21 22.7294ZM30.0557 6.54401C29.7175 7.13695 28.9629 7.34292 28.3706 7.0051C27.778 6.66705 27.5716 5.91261 27.9096 5.32008L29.5536 2.43773C29.8916 1.84495 30.6458 1.63866 31.2386 1.97663C31.8313 2.31469 32.0376 3.06905 31.6996 3.66166L30.0557 6.54401ZM11.9444 6.54401C12.2824 7.13662 13.0368 7.343 13.6295 7.00502C14.2221 6.66705 14.4284 5.91261 14.0905 5.32L12.4465 2.43765C12.1086 1.84503 11.354 1.63866 10.7615 1.97663C10.1689 2.31461 9.96253 3.06905 10.3005 3.66166L11.9444 6.54401ZM19.7648 37.8824C19.7648 37.2001 20.3178 36.6471 21 36.6471C21.6823 36.6471 22.2353 37.2001 22.2353 37.8824V40.7647C22.2353 41.4469 21.6823 42 21 42C20.3178 42 19.7648 41.4469 19.7648 40.7647V37.8824ZM13.6295 34.995C13.0368 34.6571 12.2825 34.8634 11.9444 35.456L10.3005 38.3383C9.96253 38.931 10.1689 39.6854 10.7615 40.0234C11.3542 40.3613 12.1086 40.1549 12.4465 39.5624L14.0905 36.68C14.4285 36.0874 14.2221 35.333 13.6295 34.995ZM28.3706 34.9949C28.9631 34.6571 29.7177 34.8633 30.0557 35.456L31.6996 38.3383C32.0376 38.931 31.8312 39.6854 31.2386 40.0234C30.6458 40.3613 29.8915 40.1549 29.5536 39.5623L27.9096 36.6799C27.5716 36.0873 27.778 35.3329 28.3706 34.9949Z" fill="currentColor"/>
    </symbol>

    <symbol viewBox="0 0 25 53" id="goal-4" xmlns="http://www.w3.org/2000/svg">
        <path fill-rule="evenodd" clip-rule="evenodd" d="M16.1332 29.4695C15.8927 29.3114 15.6563 29.1412 15.4239 28.9675V28.9784L15.4616 29.0408C14.7478 28.639 14.015 28.2749 13.2657 27.9496V27.9436C12.8636 27.7855 12.4684 27.6493 12.0734 27.5278V27.6144C11.7072 27.5034 11.341 27.4048 10.9748 27.3182H10.8963C9.76785 27.0513 8.61282 26.9231 7.45523 26.9364C4.96511 26.9987 2.89749 27.8561 1.79568 29.3369C1.29617 30.0183 0.983424 30.8259 0.890163 31.6752C0.742458 32.9304 0.982814 34.2017 1.57693 35.3073C2.7051 37.2206 4.40945 38.699 6.42898 39.516C8.4512 40.3247 10.5507 40.9099 12.6922 41.262L12.6544 42.1349C10.4119 41.7704 8.21353 41.1589 6.09695 40.311C3.89822 39.4215 2.04251 37.8116 0.814723 35.7281C0.132228 34.4368 -0.132298 32.9536 0.0602067 31.4958C0.18777 30.5217 0.556789 29.5981 1.13174 28.8147C2.39187 27.1234 4.70095 26.1257 7.44766 26.079C8.61184 26.0573 9.77444 26.1776 10.9114 26.4375L10.9416 26.4437V26.4297L11.0849 4.1853C11.0876 4.01221 11.146 3.84497 11.2509 3.70984L14.0052 0.171387C14.0478 0.118896 14.1009 0.0767822 14.1608 0.0478516C14.2207 0.0189209 14.2862 0.00390625 14.3523 0.00390625C14.4185 0.00390625 14.4839 0.0189209 14.5438 0.0478516C14.6039 0.0767822 14.657 0.118896 14.6995 0.171387L17.6198 3.71765C17.6355 3.7373 17.6503 3.75769 17.6641 3.77881C17.6781 3.80029 17.6911 3.82239 17.7029 3.84497C17.715 3.86816 17.726 3.89197 17.7357 3.91626C17.7727 4.00842 17.7925 4.10767 17.7934 4.20874L17.9065 29.4382L18.1781 29.6176L18.1779 29.632C20.1778 30.6226 22.3574 31.1849 24.5847 31.2777H24.5546C24.61 31.2777 24.6651 31.2889 24.7163 31.3109C24.7676 31.3329 24.8141 31.365 24.8534 31.4055C24.8926 31.446 24.9237 31.4941 24.945 31.5471C24.9662 31.6001 24.9772 31.6569 24.9772 31.7141C24.9772 31.743 24.9744 31.7719 24.9689 31.8002C24.9635 31.8279 24.9555 31.855 24.945 31.8812C24.9237 31.9341 24.8926 31.9823 24.8534 32.0228C24.8141 32.0634 24.7676 32.0955 24.7163 32.1174C24.6651 32.1393 24.61 32.1506 24.5546 32.1506H24.4112C21.5511 32.0051 18.771 31.1266 16.3218 29.5941L16.1332 29.4695ZM16.7746 28.7679V28.7601L16.6614 4.349L14.3372 1.55872L12.149 4.33337L12.0734 26.7181V26.7345C12.4672 26.8463 12.8676 26.9791 13.2682 27.1261L13.877 4.06836C13.8845 3.96228 13.9308 3.86304 14.0065 3.79077C14.0821 3.71851 14.1814 3.67847 14.2844 3.67871C14.3872 3.67664 14.4867 3.71619 14.5615 3.78906C14.5794 3.8064 14.5954 3.8252 14.6095 3.84534C14.6176 3.85669 14.6249 3.86841 14.6316 3.88049C14.6369 3.88977 14.6417 3.89929 14.6463 3.90894C14.6533 3.92419 14.6594 3.93982 14.6646 3.95581C14.6688 3.96875 14.6724 3.98206 14.6753 3.99548C14.6776 4.0061 14.6795 4.01685 14.6809 4.02771C14.6828 4.04114 14.6839 4.05469 14.6844 4.06836L15.4237 28.0552L15.4314 28.0587C15.869 28.277 16.3218 28.5107 16.7746 28.7679ZM12.0207 28.5186C11.6509 28.4016 11.266 28.2925 10.8963 28.2068L10.8358 37.2324H7.25149C7.10269 37.2324 6.95987 37.2928 6.85403 37.4009C6.74807 37.5088 6.68753 37.6555 6.68557 37.8091C6.68753 37.9635 6.74783 38.1111 6.85354 38.2202C6.95925 38.3295 7.10208 38.3917 7.25149 38.3937H11.9602L12.0207 28.5186ZM21.6951 37.9895C21.6881 38.0111 21.68 38.0323 21.6706 38.053C21.659 38.0785 21.6455 38.1033 21.6305 38.127C21.6093 38.1603 21.5846 38.1915 21.5569 38.2202C21.4512 38.3295 21.3084 38.3917 21.1588 38.3937H16.8123L16.7746 30.7242C17.1519 30.9425 17.5292 31.1764 17.9141 31.4258V37.2324H21.1287C21.173 37.23 21.2173 37.2329 21.2608 37.2411C21.292 37.2469 21.3228 37.2556 21.3528 37.267C21.3808 37.2775 21.4077 37.2902 21.4336 37.3051C21.4741 37.3282 21.5119 37.3566 21.5458 37.3895C21.558 37.4014 21.5697 37.4137 21.5808 37.4266C21.5984 37.4469 21.6147 37.4685 21.6293 37.4911C21.6476 37.5193 21.6635 37.5492 21.6768 37.5804C21.7075 37.6526 21.7239 37.7303 21.7248 37.8091C21.7239 37.871 21.7138 37.9318 21.6951 37.9895ZM19.2648 51.745C18.1797 52.59 16.8504 53.0321 15.4917 52.9999C15.4262 52.9998 15.3606 52.9988 15.2952 52.9968C15.168 52.9932 15.0409 52.9861 14.9142 52.9756C14.81 52.9669 14.7058 52.9559 14.602 52.9427C14.4324 52.9211 14.2636 52.8934 14.0957 52.8596C12.5491 52.5071 11.0897 51.8278 9.8096 50.8643C9.76321 50.8323 9.72354 50.7909 9.6929 50.7427C9.66238 50.6945 9.64151 50.6403 9.63162 50.5835C9.6293 50.5703 9.62759 50.5571 9.62661 50.5439C9.62588 50.535 9.62539 50.5261 9.62515 50.5172C9.62442 50.4821 9.62783 50.4468 9.63552 50.4124C9.64797 50.3561 9.67117 50.3031 9.70401 50.2563C9.76919 50.1628 9.86709 50.0992 9.97695 50.0789C10.0867 50.0585 10.2 50.083 10.2926 50.1472C11.4749 51.0415 12.8238 51.6731 14.2542 52.0022C15.0205 52.181 15.8148 52.1902 16.5849 52.0291C17.3549 51.8678 18.083 51.5399 18.7215 51.0669C19.3885 50.493 19.8742 49.7264 20.1162 48.8654C20.3582 48.0043 20.3455 47.0881 20.0797 46.2346C19.8045 45.4814 19.3675 44.8025 18.8015 44.249C18.2356 43.6956 17.5554 43.2817 16.8123 43.0389L16.7897 42.0881C17.7283 42.3479 18.5922 42.8378 19.3081 43.5162C20.0242 44.1947 20.5711 45.0417 20.9022 45.9852C21.222 47.0039 21.2367 48.0986 20.9446 49.1262C20.6524 50.1538 20.067 51.0665 19.2648 51.745ZM13.2355 28.9473C14.0081 29.2552 14.7638 29.6066 15.4993 29.9994L16.1181 45.0811V45.1434C16.1101 45.6271 15.9164 46.0878 15.5796 46.424C15.2428 46.7601 14.7904 46.9443 14.3222 46.936C13.8538 46.9277 13.4079 46.7277 13.0824 46.3799C12.7569 46.032 12.5785 45.5648 12.5866 45.0811L12.6696 43L12.7073 42.1271L12.745 41.2542L13.2355 28.9473ZM14.7005 45.0911C14.8101 45.0215 14.9007 44.9242 14.9635 44.8082V44.7927C15.0182 44.6871 15.0468 44.5693 15.0465 44.4497L14.8957 40.2877C14.8946 40.2107 14.8778 40.1353 14.8468 40.0662C14.8313 40.0317 14.8123 39.9989 14.7899 39.9681C14.7373 39.8979 14.6698 39.8412 14.5927 39.802C14.5155 39.7628 14.4307 39.7423 14.3448 39.7421C14.2598 39.7418 14.1759 39.7621 14.0999 39.8013C14.024 39.8406 13.9579 39.8977 13.9071 39.9681C13.8568 40.0312 13.8222 40.1055 13.8054 40.1843C13.7984 40.2181 13.7945 40.2528 13.794 40.2877L13.628 44.4497C13.6237 44.5807 13.6551 44.7103 13.7184 44.8239C13.7779 44.9399 13.867 45.0369 13.9761 45.1042C14.0852 45.1716 14.2101 45.2067 14.3372 45.2058C14.4658 45.2002 14.5908 45.1606 14.7005 45.0911Z" fill="currentColor" />
    </symbol>

    <symbol viewBox="0 0 26 26" id="info" xmlns="http://www.w3.org/2000/svg">
        <path d="M13 0C5.81491 0 0 5.81425 0 13C0 20.185 5.81425 26 13 26C20.1851 26 26 20.1858 26 13C26 5.81501 20.1858 0 13 0ZM14.335 18.1604C14.335 18.5712 13.7361 18.9818 13.0003 18.9818C12.2302 18.9818 11.6827 18.5712 11.6827 18.1604V11.6408C11.6827 11.1617 12.2303 10.8365 13.0003 10.8365C13.7361 10.8365 14.335 11.1617 14.335 11.6408V18.1604ZM13.0003 9.2623C12.2131 9.2623 11.5972 8.6805 11.5972 8.03019C11.5972 7.37994 12.2132 6.81525 13.0003 6.81525C13.7704 6.81525 14.3864 7.37994 14.3864 8.03019C14.3864 8.6805 13.7703 9.2623 13.0003 9.2623Z" fill="currentColor"/>
    </symbol>

    <symbol viewBox="0 0 32 32" id="pdf" xmlns="http://www.w3.org/2000/svg">
        <path fill-rule="evenodd" clip-rule="evenodd" d="M16 32C24.8366 32 32 24.8366 32 16C32 7.16344 24.8366 0 16 0C7.16344 0 0 7.16344 0 16C0 24.8366 7.16344 32 16 32ZM18.6658 6H11.0346C9.91974 6 9.01238 6.90799 9.01238 8.0222V15.5H8.81487C8.36491 15.5 8 15.8645 8 16.3149V21.2567C8 21.7071 8.36488 22.0716 8.81487 22.0716H9.01238V22.9778C9.01238 24.0932 9.91974 25 11.0346 25H21.447C22.5611 25 23.4686 24.0932 23.4686 22.9778V10.786L18.6658 6ZM10.1377 17.2067C10.3766 17.1664 10.7122 17.1359 11.1852 17.1359C11.6631 17.1359 12.0037 17.2272 12.2326 17.4104C12.4513 17.5831 12.5988 17.8681 12.5988 18.2036C12.5988 18.5389 12.487 18.824 12.2836 19.0172C12.019 19.2662 11.6277 19.378 11.17 19.378C11.0681 19.378 10.9768 19.373 10.9054 19.3631V20.5885H10.1377V17.2067ZM21.447 23.7615H11.0346C10.6029 23.7615 10.2514 23.41 10.2514 22.9778V22.0716H19.9579C20.4079 22.0716 20.7728 21.7071 20.7728 21.2567V16.3149C20.7728 15.8645 20.4079 15.5 19.9579 15.5H10.2514V8.0222C10.2514 7.59116 10.603 7.23965 11.0346 7.23965L18.2024 7.23216V9.88165C18.2024 10.6555 18.8304 11.2841 19.6048 11.2841L22.2003 11.2766L22.2295 22.9777C22.2295 23.41 21.8786 23.7615 21.447 23.7615ZM13.0938 20.573V17.2067C13.3785 17.1614 13.7496 17.1359 14.1412 17.1359C14.7921 17.1359 15.2142 17.2527 15.5449 17.5017C15.9008 17.7663 16.1243 18.188 16.1243 18.7935C16.1243 19.4494 15.8855 19.9022 15.5548 20.1816C15.1939 20.4816 14.6446 20.6239 13.9735 20.6239C13.5716 20.6239 13.2869 20.5984 13.0938 20.573ZM18.6435 18.5799V19.2103H17.4128V20.5885H16.6348V17.1614H18.7298V17.7967H17.4128V18.5799H18.6435ZM11.2257 17.7203C11.612 17.7203 11.831 17.9085 11.831 18.224C11.831 18.575 11.5767 18.783 11.1649 18.783C11.0528 18.783 10.9714 18.7781 10.9053 18.7632V17.7508C10.9612 17.7359 11.068 17.7203 11.2257 17.7203ZM13.8721 17.7614C13.9382 17.7459 14.05 17.731 14.223 17.731C14.8891 17.731 15.3062 18.1073 15.3012 18.8191C15.3012 19.6377 14.8435 20.024 14.1417 20.019C14.0451 20.019 13.9382 20.019 13.8721 20.0035V17.7614Z" fill="currentColor"/>
    </symbol>

    <symbol viewBox="0 0 32 32" id="name-group" xmlns="http://www.w3.org/2000/svg">
        <path fill-rule="evenodd" clip-rule="evenodd" d="M16 32C24.8365 32 32 24.8364 32 16C32 7.16357 24.8365 0 16 0C7.16345 0 0 7.16357 0 16C0 24.8364 7.16345 32 16 32ZM16 8C14.277 8 12.8751 9.40186 12.8751 11.125C12.8751 12.2939 13.5201 13.3145 14.4729 13.8506C14.9247 14.1045 15.4457 14.25 16 14.25C16.5543 14.25 17.0753 14.1045 17.5272 13.8506C18.4799 13.3145 19.1249 12.2935 19.1249 11.125C19.1249 9.40186 17.7231 8 16 8ZM11.8104 17.4883C11.8104 16.0552 12.9761 14.8896 14.4088 14.8896H17.5912C19.024 14.8896 20.1896 16.0552 20.1896 17.4883V22.7495C20.1896 23.0361 19.9569 23.269 19.6699 23.269H12.3301C12.0431 23.269 11.8104 23.0361 11.8104 22.7495V17.4883ZM22.4016 16.2437H21.0095C21.1515 16.6318 21.229 17.0513 21.229 17.4883V22.7495C21.229 22.9316 21.1973 23.1064 21.1396 23.269H23.4409C24.3007 23.269 25 22.5693 25 21.71V18.8418C25 17.4092 23.8344 16.2437 22.4016 16.2437ZM10.771 17.4883C10.771 17.0513 10.8485 16.6318 10.9905 16.2437H9.59839C8.16565 16.2437 7 17.4092 7 18.8418V21.71C7 22.5698 7.69934 23.269 8.55908 23.269H10.8605C10.8159 23.1436 10.787 23.0112 10.776 22.8735C10.7727 22.8325 10.771 22.791 10.771 22.7495V17.4883ZM8.17578 13.2495C8.17578 11.9609 9.22412 10.9126 10.5127 10.9126C11.8014 10.9126 12.8497 11.9609 12.8497 13.2495C12.8497 13.6465 12.7501 14.02 12.5751 14.3477C12.3257 14.814 11.9226 15.187 11.4337 15.3975C11.2671 15.4692 11.0907 15.522 10.907 15.5537C10.7788 15.5757 10.6471 15.5869 10.5127 15.5869C9.22412 15.5869 8.17578 14.5386 8.17578 13.2495ZM21.4873 10.9126C20.1986 10.9126 19.1503 11.9609 19.1503 13.2495C19.1503 13.6465 19.2499 14.02 19.4249 14.3477C19.6744 14.8145 20.0775 15.187 20.5664 15.3975C20.8491 15.519 21.1604 15.5869 21.4873 15.5869C22.776 15.5869 23.8243 14.5386 23.8243 13.2495C23.8243 11.9609 22.776 10.9126 21.4873 10.9126Z" fill="currentColor" />
    </symbol>

    <symbol viewBox="0 0 20 21" id="thumb-up" xmlns="http://www.w3.org/2000/svg">
        <path d="M18.4688 14.1804C18.8694 13.6694 19.0615 13.1217 19.037 12.5576C19.0125 11.9363 18.7345 11.4499 18.5056 11.1515C18.7713 10.4893 18.8735 9.44694 17.9865 8.6376C17.3365 8.04489 16.2329 7.7792 14.7041 7.85278C13.6291 7.90183 12.7298 8.10212 12.693 8.1103H12.689C12.4846 8.14708 12.2679 8.19205 12.0472 8.2411C12.0308 7.97949 12.0758 7.32957 12.5581 5.86621C13.1304 4.12489 13.0977 2.79233 12.4519 1.90124C11.7733 0.965178 10.6901 0.891602 10.3713 0.891602C10.0647 0.891602 9.78267 1.01832 9.58238 1.25131C9.12866 1.77861 9.18179 2.75146 9.23902 3.20109C8.69946 4.6481 7.18705 8.19614 5.90763 9.18125C5.8831 9.1976 5.86267 9.21803 5.84223 9.23847C5.46617 9.63497 5.21274 10.0642 5.04106 10.4402C4.79989 10.3094 4.52602 10.2358 4.23172 10.2358H1.73828C0.798135 10.2358 0.0378418 11.0002 0.0378418 11.9363V18.5786C0.0378418 19.5188 0.802222 20.2791 1.73828 20.2791H4.23172C4.59551 20.2791 4.93478 20.1646 5.21274 19.9684L6.17332 20.0829C6.32048 20.1033 8.93654 20.4344 11.6221 20.3813C12.1085 20.418 12.5663 20.4385 12.9914 20.4385C13.7231 20.4385 14.3608 20.3813 14.8922 20.2668C16.143 20.0011 16.9973 19.4697 17.4306 18.689C17.7617 18.0922 17.7617 17.4995 17.7085 17.1234C18.522 16.3877 18.665 15.5742 18.6364 15.002C18.6201 14.6709 18.5465 14.3888 18.4688 14.1804ZM1.73828 19.1754C1.40719 19.1754 1.14149 18.9056 1.14149 18.5786V11.9322C1.14149 11.6011 1.41127 11.3354 1.73828 11.3354H4.23172C4.56281 11.3354 4.8285 11.6052 4.8285 11.9322V18.5745C4.8285 18.9056 4.55872 19.1713 4.23172 19.1713H1.73828V19.1754ZM17.4224 13.7021C17.2507 13.882 17.218 14.1559 17.3488 14.3684C17.3488 14.3725 17.5164 14.6586 17.5368 15.051C17.5655 15.5865 17.3079 16.0607 16.7684 16.4653C16.5763 16.6125 16.4986 16.8659 16.5803 17.0948C16.5803 17.0989 16.7561 17.6385 16.47 18.1494C16.1961 18.6399 15.5871 18.9915 14.6633 19.1877C13.9234 19.3471 12.9179 19.3757 11.6834 19.2776C11.6671 19.2776 11.6466 19.2776 11.6262 19.2776C8.99785 19.3348 6.34091 18.9915 6.3123 18.9874H6.30821L5.89537 18.9383C5.91989 18.8239 5.93216 18.7013 5.93216 18.5786V11.9322C5.93216 11.7564 5.90354 11.5848 5.85449 11.4253C5.92807 11.1515 6.13245 10.5424 6.61478 10.0233C8.45011 8.56811 10.2446 3.6589 10.3222 3.44635C10.3549 3.36051 10.3631 3.26649 10.3468 3.17248C10.2773 2.71467 10.3018 2.15467 10.3999 1.98708C10.6165 1.99116 11.2011 2.05248 11.5526 2.5389C11.9695 3.11525 11.9532 4.14533 11.5035 5.51058C10.8168 7.59117 10.7596 8.68665 11.3033 9.16898C11.573 9.41015 11.9327 9.42241 12.1944 9.3284C12.4437 9.27117 12.6808 9.22212 12.9056 9.18533C12.9219 9.18125 12.9424 9.17716 12.9587 9.17307C14.2136 8.8992 16.4618 8.73161 17.2425 9.44285C17.9047 10.0478 17.4347 10.849 17.3815 10.9348C17.2303 11.1637 17.2752 11.4621 17.4796 11.6461C17.4837 11.6502 17.9129 12.0548 17.9333 12.5985C17.9497 12.9623 17.778 13.3342 17.4224 13.7021Z" fill="currentColor" />
    </symbol>

    <symbol viewBox="0 0 20 21" id="thumb-down" xmlns="http://www.w3.org/2000/svg">
        <path d="M18.9883 7.14958C19.3889 7.66053 19.581 8.20827 19.5565 8.77236C19.5319 9.39367 19.254 9.88009 19.0251 10.1785C19.2908 10.8407 19.393 11.883 18.5059 12.6924C17.856 13.2851 16.7524 13.5508 15.2236 13.4772C14.1486 13.4281 13.2493 13.2278 13.2125 13.2197H13.2084C13.004 13.1829 12.7874 13.1379 12.5667 13.0889C12.5503 13.3505 12.5953 14.0004 13.0776 15.4638C13.6499 17.2051 13.6172 18.5376 12.9713 19.4287C12.2928 20.3648 11.2096 20.4384 10.8908 20.4384C10.5842 20.4384 10.3021 20.3116 10.1018 20.0786C9.64813 19.5513 9.70126 18.5785 9.75849 18.1289C9.21893 16.6819 7.70652 13.1338 6.4271 12.1487C6.40257 12.1324 6.38214 12.1119 6.3617 12.0915C5.98564 11.695 5.73221 11.2658 5.56053 10.8897C5.31936 11.0205 5.04549 11.0941 4.75119 11.0941H2.25775C1.3176 11.0941 0.557312 10.3297 0.557312 9.39367V2.75133C0.557312 1.81118 1.32169 1.05089 2.25775 1.05089H4.75119C5.11498 1.05089 5.45425 1.16534 5.73221 1.36154L6.69279 1.24709C6.83995 1.22665 9.45601 0.895559 12.1416 0.948698C12.628 0.911909 13.0858 0.89147 13.5109 0.89147C14.2426 0.89147 14.8802 0.948696 15.4116 1.06315C16.6624 1.32884 17.5167 1.86023 17.95 2.64096C18.2811 3.23775 18.2811 3.83045 18.228 4.20651C19.0414 4.94228 19.1845 5.75571 19.1559 6.32797C19.1395 6.65907 19.0659 6.94111 18.9883 7.14958ZM2.25775 2.15454C1.92666 2.15454 1.66096 2.42432 1.66096 2.75133V9.39776C1.66096 9.72885 1.93074 9.99455 2.25775 9.99455H4.75119C5.08228 9.99455 5.34797 9.72476 5.34797 9.39776V2.75541C5.34797 2.42432 5.07819 2.15862 4.75119 2.15862H2.25775V2.15454ZM17.9419 7.62783C17.7702 7.44797 17.7375 7.1741 17.8683 6.96155C17.8683 6.95746 18.0359 6.67133 18.0563 6.27892C18.0849 5.74345 17.8274 5.26929 17.2878 4.86461C17.0957 4.71746 17.0181 4.46403 17.0998 4.23512C17.0998 4.23104 17.2756 3.69147 16.9894 3.18052C16.7156 2.69001 16.1065 2.33848 15.1827 2.14227C14.4429 1.98286 13.4373 1.95425 12.2029 2.05235C12.1865 2.05235 12.1661 2.05235 12.1456 2.05235C9.51732 1.99512 6.86038 2.33848 6.83177 2.34257H6.82768L6.41484 2.39162C6.43936 2.50607 6.45163 2.6287 6.45163 2.75133V9.39776C6.45163 9.57352 6.42301 9.7452 6.37396 9.90462C6.44754 10.1785 6.65192 10.7875 7.13425 11.3067C8.96958 12.7618 10.764 17.6711 10.8417 17.8836C10.8744 17.9694 10.8826 18.0635 10.8662 18.1575C10.7967 18.6153 10.8213 19.1753 10.9194 19.3429C11.136 19.3388 11.7205 19.2775 12.0721 18.7911C12.489 18.2147 12.4727 17.1846 12.023 15.8194C11.3363 13.7388 11.2791 12.6433 11.8227 12.161C12.0925 11.9198 12.4522 11.9075 12.7138 12.0016C12.9632 12.0588 13.2002 12.1078 13.4251 12.1446C13.4414 12.1487 13.4619 12.1528 13.4782 12.1569C14.7331 12.4308 16.9813 12.5983 17.762 11.8871C18.4242 11.2821 17.9541 10.481 17.901 10.3951C17.7497 10.1662 17.7947 9.86783 17.9991 9.68389C18.0032 9.6798 18.4324 9.27513 18.4528 8.73148C18.4692 8.36768 18.2975 7.99571 17.9419 7.62783Z" fill="currentColor" />
    </symbol>

    <symbol viewBox="0 0 32 32" id="city" xmlns="http://www.w3.org/2000/svg">
        <path fill-rule="evenodd" clip-rule="evenodd" d="M16 32C24.8366 32 32 24.8367 32 16C32 7.16333 24.8366 0 16 0C7.16344 0 0 7.16333 0 16C0 24.8367 7.16344 32 16 32ZM16.0236 7.08472L8.86081 10.9963C8.75413 11.0544 8.68777 11.1665 8.68777 11.2878V12.2075C8.68777 12.3911 8.83656 12.5398 9.02009 12.5398H23.6884C23.8719 12.5398 24.0207 12.3911 24.0207 12.2075V11.2878C24.0207 11.1665 23.9543 11.0544 23.8477 10.9963L16.6876 7.08472C16.4807 6.97168 16.2305 6.97168 16.0236 7.08472ZM16.3553 11.0669C15.7554 11.0669 15.2676 10.5791 15.2676 9.97925C15.2676 9.37915 15.7554 8.8916 16.3553 8.8916C16.9528 8.8916 17.4381 9.37915 17.4381 9.97925C17.4381 10.5791 16.9528 11.0669 16.3553 11.0669ZM9.89577 13.0815H13.0268V13.8184C13.0268 13.97 12.9022 14.0945 12.7505 14.0945H12.3822V19.5442H12.7505C12.9022 19.5442 13.0268 19.666 13.0268 19.8203V20.5571H9.89577V19.8203C9.89577 19.666 10.0204 19.5442 10.172 19.5442H10.5404V14.0945H10.172C10.0204 14.0945 9.89577 13.97 9.89577 13.8184V13.0815ZM14.7873 13.0815H17.9184V13.8184C17.9184 13.97 17.7938 14.0945 17.6421 14.0945H17.2738V19.5442H17.6421C17.7938 19.5442 17.9184 19.666 17.9184 19.8203V20.5571H14.7873V19.8203C14.7873 19.666 14.9119 19.5442 15.0636 19.5442H15.432V14.0945H15.0636C14.9119 14.0945 14.7873 13.97 14.7873 13.8184V13.0815ZM22.5337 19.5442H22.1653V14.0945H22.5337C22.6854 14.0945 22.81 13.97 22.81 13.8184V13.0815H19.6789V13.8184C19.6789 13.97 19.8035 14.0945 19.9552 14.0945H20.3236V19.5442H19.9552C19.8035 19.5442 19.6789 19.666 19.6789 19.8203V20.5571H22.81V19.8203C22.81 19.666 22.6854 19.5442 22.5337 19.5442ZM23.7444 21.4319V22.1416H8.96404V21.4319C8.96404 21.2478 9.11301 21.0986 9.29719 21.0986H23.4112C23.5954 21.0986 23.7444 21.2478 23.7444 21.4319ZM24.7066 23.0159V23.6074C24.7066 23.7917 24.5572 23.9412 24.3728 23.9412H8.33378C8.14944 23.9412 8 23.7917 8 23.6074V23.0159C8 22.8315 8.14944 22.6821 8.33378 22.6821H24.3728C24.5572 22.6821 24.7066 22.8315 24.7066 23.0159Z" fill="currentColor" />
    </symbol>

    <symbol viewBox="0 0 23 31" id="palm" xmlns="http://www.w3.org/2000/svg">
        <path fill-rule="evenodd" clip-rule="evenodd" d="M11.3484 13.8148C11.3484 14.0807 11.5643 14.2963 11.8307 14.2963C12.097 14.2963 12.3129 14.0807 12.3129 13.8148V5.00105C12.3272 4.28319 12.9166 3.70368 13.6389 3.70368C14.3701 3.70368 14.9651 4.29768 14.9651 5.02777V16.9537C14.837 16.9635 14.7089 16.9773 14.5809 16.9951C13.7781 17.1067 13.0135 17.3693 12.3085 17.7757C11.6035 18.1821 10.9935 18.7118 10.4952 19.3502C9.97913 20.0114 9.60643 20.7603 9.38743 21.5763C9.31847 21.8331 9.47118 22.0972 9.72842 22.166C9.98567 22.2349 10.2501 22.0825 10.3191 21.8256C10.9418 19.5052 13.0243 17.9568 15.3162 17.901C15.3579 17.9128 15.4019 17.919 15.4474 17.919C15.4926 17.919 15.5364 17.9128 15.578 17.9012C15.9879 17.9116 16.403 17.97 16.8161 18.0806C16.9396 18.1136 17.0713 18.0963 17.182 18.0325C17.2928 17.9686 17.3737 17.8635 17.4068 17.7401L18.4053 14.0195C18.7494 12.7373 20.0742 11.9736 21.3585 12.3172C21.4424 12.3397 21.4863 12.3972 21.5049 12.4294C21.5236 12.4616 21.5515 12.5283 21.529 12.6121L18.7533 22.9545C17.7248 26.7866 14.2312 29.463 10.2575 29.463C5.4077 29.463 1.46207 25.5237 1.46207 20.6817V9.60187C1.46207 8.87172 2.05697 8.27777 2.7883 8.27777C3.51067 8.27777 4.09995 8.85733 4.11426 9.57513V15.0185C4.11426 15.2844 4.33016 15.5 4.59651 15.5C4.86287 15.5 5.07877 15.2844 5.07877 15.0185V9.618C5.07894 9.61265 5.07903 9.60727 5.07903 9.60187C5.07903 9.59015 5.07894 9.57845 5.07877 9.56677V5.02777C5.07877 4.29768 5.67373 3.70368 6.40499 3.70368C7.13626 3.70368 7.73122 4.29768 7.73122 5.02777L7.73145 5.04251V13.8148C7.73145 14.0807 7.94734 14.2963 8.2137 14.2963C8.48006 14.2963 8.69595 14.0807 8.69595 13.8148V2.86111C8.69595 2.13103 9.29092 1.53702 10.0222 1.53702C10.7535 1.53702 11.3484 2.13103 11.3484 2.86111V4.99258L11.3481 5.02777L11.3484 5.04395V13.8148ZM4.11426 7.73788V5.02777C4.11426 3.76671 5.1419 2.74072 6.40499 2.74072C6.89895 2.74072 7.35689 2.89763 7.73145 3.16413V2.86111C7.73145 1.60005 8.75908 0.574066 10.0222 0.574066C11.2853 0.574066 12.3129 1.60005 12.3129 2.86111V3.16377C12.6874 2.89748 13.1451 2.74072 13.6389 2.74072C14.902 2.74072 15.9296 3.76671 15.9296 5.02777V16.9545C16.1522 16.9721 16.3743 17.0017 16.5953 17.0433L17.4737 13.7702C17.7071 12.9006 18.2657 12.1738 19.0465 11.7237C19.8274 11.2736 20.7372 11.154 21.6082 11.387C21.9193 11.4702 22.1793 11.6694 22.3403 11.9479C22.5013 12.2263 22.5441 12.5507 22.4607 12.8613L19.685 23.2036C19.4041 24.2503 18.9552 25.2346 18.3507 26.1294C17.7612 27.0021 17.0373 27.7702 16.1991 28.4123C15.3609 29.0544 14.4304 29.5538 13.4335 29.8964C12.4113 30.2478 11.3428 30.4259 10.2575 30.4259C8.9401 30.4259 7.66188 30.1682 6.45834 29.66C5.2961 29.1692 4.25234 28.4666 3.35616 27.5719C2.45998 26.6771 1.75628 25.6351 1.26474 24.4747C0.75568 23.273 0.497559 21.9969 0.497559 20.6816V9.60187C0.497559 8.3408 1.5252 7.31482 2.7883 7.31482C3.28203 7.31482 3.73979 7.47159 4.11426 7.73788Z" fill="currentColor" />

    </symbol>

    <symbol viewBox="" id="id" xmlns="http://www.w3.org/2000/svg">
        
    </symbol>
</svg>